<svg width="118" height="116" viewBox="0 0 118 116" fill="none" xmlns="http://www.w3.org/2000/svg">
<path d="M34.7308 23.8445L34.9804 24.0079H35.2786H82.7213H83.0078L83.2509 23.8561L106.15 9.55866C110.812 6.64759 116.857 9.99973 116.857 15.4963V81.7896L81.6115 114.931H34.9733L1.14258 81.8016L1.14258 14.8012C1.14258 9.23639 7.32188 5.89649 11.9773 8.94498L34.7308 23.8445Z" stroke="#B8B8B8" stroke-width="2"/>
<rect x="30.75" y="38.75" width="58.5" height="38.5" rx="7.25" stroke="#B8B8B8" stroke-width="1.5"/>
<circle cx="60.5" cy="58.5" r="12.5" fill="#B8B8B8"/>
<path d="M52.4175 51.875C52.8986 51.0417 54.1014 51.0417 54.5825 51.875C55.0637 52.7083 54.4623 53.75 53.5 53.75C52.5378 53.75 51.9363 52.7083 52.4175 51.875Z" fill="#F1F1F1"/>
<path d="M56.3864 56.125C58.2147 52.9583 62.7853 52.9583 64.6136 56.125C66.4419 59.2917 64.1566 63.25 60.5 63.25C56.8434 63.25 54.5581 59.2917 56.3864 56.125Z" fill="#F1F1F1"/>
</svg>
