<svg width="24" height="28" viewBox="0 0 24 28" fill="none" xmlns="http://www.w3.org/2000/svg">
<path d="M21.6364 11.8182C21.6364 19.4545 11.8182 26 11.8182 26C11.8182 26 2 19.4545 2 11.8182C2 9.21424 3.03441 6.71695 4.87568 4.87568C6.71695 3.03441 9.21424 2 11.8182 2C14.4221 2 16.9194 3.03441 18.7607 4.87568C20.602 6.71695 21.6364 9.21424 21.6364 11.8182Z" fill="#F5F5F5" stroke="#404040" stroke-width="3" stroke-linecap="round" stroke-linejoin="round"/>
<path d="M11.8184 15.0909C13.6259 15.0909 15.0911 13.6256 15.0911 11.8181C15.0911 10.0107 13.6259 8.54541 11.8184 8.54541C10.0109 8.54541 8.54565 10.0107 8.54565 11.8181C8.54565 13.6256 10.0109 15.0909 11.8184 15.0909Z" fill="#F5F5F5" stroke="#404040" stroke-width="2.5" stroke-linecap="round" stroke-linejoin="round"/>
</svg>
