<svg width="118" height="124" viewBox="0 0 118 124" fill="none" xmlns="http://www.w3.org/2000/svg">
<g filter="url(#filter0_d_473_75)">
<path d="M31.0274 29.2823L32.899 30.5079H35.1361H82.5787H84.7278L86.5508 29.3697L109.45 15.0722C109.587 14.9867 109.659 14.9838 109.694 14.9836C109.755 14.9831 109.851 15 109.957 15.0591C110.064 15.1182 110.129 15.1904 110.16 15.242C110.179 15.2724 110.215 15.3349 110.215 15.4963V78.9793L78.893 108.431H37.4833L7.5 79.0693L7.5 14.8012C7.5 14.6352 7.53676 14.5733 7.55466 14.5445C7.5864 14.4935 7.65266 14.4205 7.76226 14.3613C7.87186 14.302 7.96918 14.2866 8.02925 14.288C8.06312 14.2888 8.13506 14.2919 8.27391 14.3828L31.0274 29.2823Z" fill="#9D2D15" stroke="#9D2D15" stroke-width="15"/>
<path d="M38.6127 59.05C38.6127 60.35 38.396 61.4833 37.9627 62.45C37.5294 63.4167 36.996 64.2833 36.3627 65.05C35.696 65.8167 34.9794 66.5167 34.2127 67.15C33.446 67.8167 32.7294 68.4667 32.0627 69.1C31.396 69.7667 30.8627 70.4667 30.4627 71.2C30.0294 71.9333 29.8127 72.7833 29.8127 73.75C29.8127 75.35 30.446 76.65 31.7127 77.65C32.9794 78.65 34.7294 79.15 36.9627 79.15C38.9627 79.15 40.696 78.8167 42.1627 78.15C43.6294 77.4833 44.8794 76.5 45.9127 75.2L49.5627 77.8C48.1627 79.5667 46.3794 80.9333 44.2127 81.9C42.046 82.9 39.5127 83.4 36.6127 83.4C34.2127 83.4 32.1294 83.0333 30.3627 82.3C28.596 81.6 27.2294 80.5833 26.2627 79.25C25.2627 77.95 24.7627 76.3667 24.7627 74.5C24.7627 73.1 24.9794 71.9 25.4127 70.9C25.846 69.9 26.396 69.0167 27.0627 68.25C27.7294 67.4833 28.446 66.7667 29.2127 66.1C29.946 65.4333 30.646 64.7667 31.3127 64.1C31.9794 63.4333 32.5294 62.7 32.9627 61.9C33.396 61.1 33.6127 60.15 33.6127 59.05H38.6127ZM36.0627 47.7C36.996 47.7 37.7794 48.0167 38.4127 48.65C39.0127 49.2833 39.3127 50.0333 39.3127 50.9C39.3127 51.8333 39.0127 52.6 38.4127 53.2C37.7794 53.8 36.996 54.1 36.0627 54.1C35.1294 54.1 34.3627 53.8 33.7627 53.2C33.1627 52.6 32.8627 51.8333 32.8627 50.9C32.8627 50.0333 33.1627 49.2833 33.7627 48.65C34.3627 48.0167 35.1294 47.7 36.0627 47.7Z" fill="white"/>
<path d="M68.1816 63.5C68.1816 70.5 59.1816 76.5 59.1816 76.5C59.1816 76.5 50.1816 70.5 50.1816 63.5C50.1816 61.1131 51.1299 58.8239 52.8177 57.136C54.5055 55.4482 56.7947 54.5 59.1816 54.5C61.5686 54.5 63.8578 55.4482 65.5456 57.136C67.2334 58.8239 68.1816 61.1131 68.1816 63.5Z" stroke="white" stroke-width="2" stroke-linecap="round" stroke-linejoin="round"/>
<path d="M59.2031 66.4999C60.86 66.4999 62.2031 65.1567 62.2031 63.4998C62.2031 61.843 60.86 60.4998 59.2031 60.4998C57.5463 60.4998 56.2031 61.843 56.2031 63.4998C56.2031 65.1567 57.5463 66.4999 59.2031 66.4999Z" stroke="#FAB49E" stroke-width="2" stroke-linecap="round" stroke-linejoin="round"/>
<path d="M79.7506 71.95C79.7506 70.65 79.9673 69.5167 80.4006 68.55C80.8339 67.5833 81.3673 66.7167 82.0006 65.95C82.6673 65.1833 83.3839 64.4833 84.1506 63.85C84.9173 63.1833 85.6339 62.5333 86.3006 61.9C86.9673 61.2333 87.5006 60.5333 87.9006 59.8C88.3339 59.0667 88.5506 58.2167 88.5506 57.25C88.5506 55.65 87.9173 54.35 86.6506 53.35C85.3839 52.35 83.6339 51.85 81.4006 51.85C79.4006 51.85 77.6673 52.1833 76.2006 52.85C74.7339 53.5167 73.4839 54.5 72.4506 55.8L68.8006 53.2C70.2006 51.4333 71.9839 50.0667 74.1506 49.1C76.3173 48.1 78.8506 47.6 81.7506 47.6C84.1506 47.6 86.2339 47.9667 88.0006 48.7C89.7673 49.4 91.1339 50.4167 92.1006 51.75C93.1006 53.05 93.6006 54.6333 93.6006 56.5C93.6006 57.9 93.3839 59.1 92.9506 60.1C92.5173 61.1 91.9673 61.9833 91.3006 62.75C90.6339 63.5167 89.9173 64.2333 89.1506 64.9C88.4173 65.5667 87.7173 66.2333 87.0506 66.9C86.3839 67.5667 85.8339 68.3 85.4006 69.1C84.9673 69.9 84.7506 70.85 84.7506 71.95H79.7506ZM82.3006 83.3C81.3673 83.3 80.5839 82.9833 79.9506 82.35C79.3506 81.7167 79.0506 80.9667 79.0506 80.1C79.0506 79.1667 79.3506 78.4 79.9506 77.8C80.5839 77.2 81.3673 76.9 82.3006 76.9C83.2339 76.9 84.0006 77.2 84.6006 77.8C85.2006 78.4 85.5006 79.1667 85.5006 80.1C85.5006 80.9667 85.2006 81.7167 84.6006 82.35C84.0006 82.9833 83.2339 83.3 82.3006 83.3Z" fill="white"/>
</g>
<defs>
<filter id="filter0_d_473_75" x="0" y="6.78787" width="117.715" height="117.143" filterUnits="userSpaceOnUse" color-interpolation-filters="sRGB">
<feFlood flood-opacity="0" result="BackgroundImageFix"/>
<feColorMatrix in="SourceAlpha" type="matrix" values="0 0 0 0 0 0 0 0 0 0 0 0 0 0 0 0 0 0 127 0" result="hardAlpha"/>
<feOffset dy="8"/>
<feComposite in2="hardAlpha" operator="out"/>
<feColorMatrix type="matrix" values="0 0 0 0 0 0 0 0 0 0 0 0 0 0 0 0 0 0 0.1 0"/>
<feBlend mode="normal" in2="BackgroundImageFix" result="effect1_dropShadow_473_75"/>
<feBlend mode="normal" in="SourceGraphic" in2="effect1_dropShadow_473_75" result="shape"/>
</filter>
</defs>
</svg>
