<svg width="357" height="82" viewBox="0 0 357 82" fill="none" xmlns="http://www.w3.org/2000/svg">
<path d="M19.7182 82.9211L172 82.9211V7.92114L95.7004 7.92114L19.3698 82.0625C19.276 82.1536 19.2409 82.2137 19.2296 82.235C19.2172 82.2583 19.2112 82.2769 19.2073 82.2981C19.198 82.3485 19.1955 82.4628 19.2549 82.6091C19.3143 82.7555 19.3956 82.8357 19.4374 82.8654C19.455 82.8779 19.4723 82.887 19.4974 82.8951C19.5204 82.9024 19.5874 82.9211 19.7182 82.9211Z" fill="#9D2D15" stroke="#9D2D15" stroke-width="15"/>
<path d="M337.294 83.0012L185 83.0012V7.92111L261.298 7.92111L337.643 82.1427C337.737 82.2338 337.772 82.2939 337.783 82.3152C337.795 82.3385 337.801 82.3572 337.805 82.3784C337.815 82.4289 337.817 82.543 337.758 82.6893C337.698 82.8356 337.617 82.9157 337.575 82.9454C337.558 82.9579 337.54 82.9671 337.515 82.9752C337.492 82.9825 337.425 83.0012 337.294 83.0012Z" fill="#9D2D15" stroke="#9D2D15" stroke-width="15"/>
</svg>
