<svg width="428" height="149" viewBox="0 0 428 149" fill="none" xmlns="http://www.w3.org/2000/svg">
<path d="M304.357 64.9222L302.486 63.6967H300.248H127.752H125.602L123.779 64.8349L8.2648 136.958C8.12784 137.044 8.05603 137.047 8.02032 137.047C7.95972 137.047 7.86404 137.03 7.75751 136.971C7.65097 136.912 7.586 136.84 7.55429 136.788C7.53561 136.758 7.5 136.696 7.5 136.534V7.5L420.5 7.5V140.05C420.5 140.216 420.463 140.278 420.445 140.307C420.414 140.358 420.347 140.431 420.238 140.49C420.128 140.549 420.031 140.565 419.971 140.563C419.937 140.562 419.865 140.559 419.726 140.468L304.357 64.9222Z" fill="#9D2D15" stroke="#9D2D15" stroke-width="15"/>
</svg>
