<svg width="15" height="14" viewBox="0 0 15 14" fill="none" xmlns="http://www.w3.org/2000/svg">
<mask id="path-1-inside-1_217_62" fill="white">
<path d="M0 1.85014C0 1.05518 0.882757 0.578049 1.54782 1.01355L3.99354 2.61506C4.15635 2.72167 4.34674 2.77846 4.54136 2.77846H9.68576C9.87302 2.77846 10.0565 2.72588 10.2154 2.6267L12.6858 1.08427C13.3518 0.6684 14.2154 1.14728 14.2154 1.93251V9.49688C14.2154 9.77277 14.1014 10.0364 13.9004 10.2254L10.1749 13.7285C9.98941 13.9029 9.74442 14 9.48985 14H4.56502C4.30343 14 4.05225 13.8975 3.86535 13.7145L0.300336 10.2233C0.108252 10.0352 0 9.77772 0 9.50887L0 1.85014Z"/>
</mask>
<path d="M0 1.85014C0 1.05518 0.882757 0.578049 1.54782 1.01355L3.99354 2.61506C4.15635 2.72167 4.34674 2.77846 4.54136 2.77846H9.68576C9.87302 2.77846 10.0565 2.72588 10.2154 2.6267L12.6858 1.08427C13.3518 0.6684 14.2154 1.14728 14.2154 1.93251V9.49688C14.2154 9.77277 14.1014 10.0364 13.9004 10.2254L10.1749 13.7285C9.98941 13.9029 9.74442 14 9.48985 14H4.56502C4.30343 14 4.05225 13.8975 3.86535 13.7145L0.300336 10.2233C0.108252 10.0352 0 9.77772 0 9.50887L0 1.85014Z" fill="#86E33D"/>
<path d="M10.2154 2.6267L4.91925 -5.8557L10.2154 2.6267ZM0.300336 10.2233L-6.69631 17.3681L0.300336 10.2233ZM3.99354 2.61506L-1.48468 10.981L3.99354 2.61506ZM-3.93039 9.3795L-1.48468 10.981L9.47175 -5.7509L7.02603 -7.35241L-3.93039 9.3795ZM10.862 6.56975L7.29698 3.07862L-6.69631 17.3681L-3.13129 20.8592L10.862 6.56975ZM10 9.50887V1.85014L-10 1.85014V9.50887H10ZM4.54136 12.7785H9.68576V-7.22154L4.54136 -7.22154L4.54136 12.7785ZM15.5115 11.1091L17.9819 9.56667L7.38966 -7.39813L4.91925 -5.8557L15.5115 11.1091ZM4.21538 1.93251L4.21538 9.49688L24.2154 9.49688V1.93251L4.21538 1.93251ZM7.05016 2.94021L3.32462 6.44333L17.0251 21.0137L20.7507 17.5106L7.05016 2.94021ZM9.48985 4H4.56502L4.56502 24H9.48985L9.48985 4ZM3.32462 6.44333C4.99377 4.87382 7.19868 4 9.48985 4L9.48985 24C12.2902 24 14.985 22.932 17.0251 21.0137L3.32462 6.44333ZM4.21538 9.49688C4.21538 7.01386 5.24122 4.64115 7.05016 2.94021L20.7507 17.5106C22.9616 15.4317 24.2154 12.5317 24.2154 9.49688L4.21538 9.49688ZM17.9819 9.56667C11.9873 13.3095 4.21538 8.99958 4.21538 1.93251L24.2154 1.93251C24.2154 -6.70503 14.7164 -11.9727 7.38966 -7.39813L17.9819 9.56667ZM9.68576 12.7785C11.7457 12.7785 13.7642 12.2001 15.5115 11.1091L4.91925 -5.8557C6.34886 -6.7483 8.00038 -7.22154 9.68576 -7.22154V12.7785ZM7.29698 3.07862C9.02573 4.77155 10 7.08925 10 9.50887H-10C-10 12.4662 -8.80923 15.2989 -6.69631 17.3681L7.29698 3.07862ZM-3.13129 20.8592C-1.07541 22.8725 1.68752 24 4.56502 24L4.56502 4C6.91933 4 9.17991 4.92253 10.862 6.56975L-3.13129 20.8592ZM-1.48468 10.981C0.306299 12.1538 2.40057 12.7785 4.54136 12.7785L4.54136 -7.22154C6.29291 -7.22154 8.00641 -6.71044 9.47175 -5.7509L-1.48468 10.981ZM7.02603 -7.35241C-0.289674 -12.1429 -10 -6.89448 -10 1.85014L10 1.85014C10 9.00484 2.05519 13.299 -3.93039 9.3795L7.02603 -7.35241Z" fill="#86E33D" mask="url(#path-1-inside-1_217_62)"/>
</svg>
