<svg width="18" height="20" viewBox="0 0 18 20" fill="none" xmlns="http://www.w3.org/2000/svg">
<path d="M16.3635 8.36364C16.3635 14.0909 8.99987 19 8.99987 19C8.99987 19 1.63623 14.0909 1.63623 8.36364C1.63623 6.41068 2.41204 4.53771 3.79299 3.15676C5.17394 1.77581 7.04691 1 8.99987 1C10.9528 1 12.8258 1.77581 14.2067 3.15676C15.5877 4.53771 16.3635 6.41068 16.3635 8.36364Z" stroke="white" stroke-width="1.5" stroke-linecap="round" stroke-linejoin="round"/>
<path d="M8.99996 10.8183C10.3556 10.8183 11.4545 9.71933 11.4545 8.36372C11.4545 7.00812 10.3556 5.90918 8.99996 5.90918C7.64435 5.90918 6.54541 7.00812 6.54541 8.36372C6.54541 9.71933 7.64435 10.8183 8.99996 10.8183Z" stroke="white" stroke-width="1.25" stroke-linecap="round" stroke-linejoin="round"/>
</svg>
