<svg width="195" height="209" viewBox="0 0 195 209" fill="none" xmlns="http://www.w3.org/2000/svg">
<rect width="194.792" height="209" fill="white"/>
<g filter="url(#filter0_d_320_19)">
<path d="M69.8211 76.2823L71.6927 77.5079H73.9298H121.372H123.521L125.344 76.3697L148.244 62.0722C148.381 61.9867 148.452 61.9838 148.488 61.9836C148.549 61.9831 148.644 62 148.751 62.0591C148.857 62.1182 148.922 62.1904 148.954 62.242C148.973 62.2724 149.008 62.3349 149.008 62.4963V125.979L117.687 155.431H76.277L46.2937 126.069L46.2937 61.8012C46.2937 61.6352 46.3305 61.5733 46.3484 61.5445C46.3801 61.4935 46.4464 61.4205 46.556 61.3613C46.6656 61.302 46.7629 61.2866 46.8229 61.288C46.8568 61.2888 46.9288 61.2919 47.0676 61.3828L69.8211 76.2823Z" fill="#9D2D15" stroke="#9D2D15" stroke-width="15"/>
<path d="M56 119.412V114.895L69.674 96.4972H76.7182L63.3343 114.895L60.0608 113.942H82.8923V119.412H56ZM71.6215 125.503V119.412L71.8287 113.942V108.514H78.1685V125.503H71.6215Z" fill="white"/>
<path d="M97.3309 126C94.9552 126 92.8282 125.42 90.9497 124.26C89.0713 123.072 87.5934 121.359 86.516 119.122C85.4387 116.884 84.9 114.177 84.9 111C84.9 107.823 85.4387 105.116 86.516 102.878C87.5934 100.641 89.0713 98.942 90.9497 97.7818C92.8282 96.5939 94.9552 96 97.3309 96C99.7343 96 101.861 96.5939 103.712 97.7818C105.591 98.942 107.069 100.641 108.146 102.878C109.223 105.116 109.762 107.823 109.762 111C109.762 114.177 109.223 116.884 108.146 119.122C107.069 121.359 105.591 123.072 103.712 124.26C101.861 125.42 99.7343 126 97.3309 126ZM97.3309 120.323C98.4635 120.323 99.4442 120.006 100.273 119.37C101.129 118.735 101.792 117.727 102.262 116.345C102.759 114.964 103.008 113.182 103.008 111C103.008 108.818 102.759 107.036 102.262 105.655C101.792 104.273 101.129 103.265 100.273 102.63C99.4442 101.994 98.4635 101.677 97.3309 101.677C96.226 101.677 95.2453 101.994 94.3889 102.63C93.5602 103.265 92.8972 104.273 92.4 105.655C91.9304 107.036 91.6956 108.818 91.6956 111C91.6956 113.182 91.9304 114.964 92.4 116.345C92.8972 117.727 93.5602 118.735 94.3889 119.37C95.2453 120.006 96.226 120.323 97.3309 120.323Z" fill="white"/>
<path d="M112.692 119.412V114.895L126.366 96.4972H133.41L120.026 114.895L116.753 113.942H139.584V119.412H112.692ZM128.313 125.503V119.412L128.521 113.942V108.514H134.86V125.503H128.313Z" fill="white"/>
<mask id="mask0_320_19" style="mask-type:alpha" maskUnits="userSpaceOnUse" x="56" y="96" width="84" height="30">
<path d="M56 119.412V114.895L69.674 96.4972H76.7182L63.3343 114.895L60.0608 113.942H82.8923V119.412H56ZM71.6215 125.503V119.412L71.8287 113.942V108.514H78.1685V125.503H71.6215Z" fill="white"/>
<path d="M97.3309 126C94.9552 126 92.8282 125.42 90.9497 124.26C89.0713 123.072 87.5934 121.359 86.516 119.122C85.4387 116.884 84.9 114.177 84.9 111C84.9 107.823 85.4387 105.116 86.516 102.878C87.5934 100.641 89.0713 98.942 90.9497 97.7818C92.8282 96.5939 94.9552 96 97.3309 96C99.7343 96 101.861 96.5939 103.712 97.7818C105.591 98.942 107.069 100.641 108.146 102.878C109.223 105.116 109.762 107.823 109.762 111C109.762 114.177 109.223 116.884 108.146 119.122C107.069 121.359 105.591 123.072 103.712 124.26C101.861 125.42 99.7343 126 97.3309 126ZM97.3309 120.323C98.4635 120.323 99.4442 120.006 100.273 119.37C101.129 118.735 101.792 117.727 102.262 116.345C102.759 114.964 103.008 113.182 103.008 111C103.008 108.818 102.759 107.036 102.262 105.655C101.792 104.273 101.129 103.265 100.273 102.63C99.4442 101.994 98.4635 101.677 97.3309 101.677C96.226 101.677 95.2453 101.994 94.3889 102.63C93.5602 103.265 92.8972 104.273 92.4 105.655C91.9304 107.036 91.6956 108.818 91.6956 111C91.6956 113.182 91.9304 114.964 92.4 116.345C92.8972 117.727 93.5602 118.735 94.3889 119.37C95.2453 120.006 96.226 120.323 97.3309 120.323Z" fill="white"/>
<path d="M112.692 119.412V114.895L126.366 96.4972H133.41L120.026 114.895L116.753 113.942H139.584V119.412H112.692ZM128.313 125.503V119.412L128.521 113.942V108.514H134.86V125.503H128.313Z" fill="white"/>
</mask>
<g mask="url(#mask0_320_19)">
<rect x="84" y="96" width="26" height="30" fill="#FAB49E"/>
</g>
</g>
<defs>
<filter id="filter0_d_320_19" x="38.7937" y="53.7878" width="117.715" height="117.143" filterUnits="userSpaceOnUse" color-interpolation-filters="sRGB">
<feFlood flood-opacity="0" result="BackgroundImageFix"/>
<feColorMatrix in="SourceAlpha" type="matrix" values="0 0 0 0 0 0 0 0 0 0 0 0 0 0 0 0 0 0 127 0" result="hardAlpha"/>
<feOffset dy="8"/>
<feComposite in2="hardAlpha" operator="out"/>
<feColorMatrix type="matrix" values="0 0 0 0 0 0 0 0 0 0 0 0 0 0 0 0 0 0 0.1 0"/>
<feBlend mode="normal" in2="BackgroundImageFix" result="effect1_dropShadow_320_19"/>
<feBlend mode="normal" in="SourceGraphic" in2="effect1_dropShadow_320_19" result="shape"/>
</filter>
</defs>
</svg>
