<svg width="314" height="280" viewBox="0 0 314 280" fill="none" xmlns="http://www.w3.org/2000/svg">
<g clip-path="url(#clip0_40_285)">
<path d="M20.953 17.0259C3.03092 56.9712 -15.479 162.235 24.4663 180.158C43.6487 188.764 65.4644 189.398 85.1141 181.919C104.764 174.441 120.638 159.463 129.244 140.281C137.851 121.099 138.485 99.2829 131.006 79.6332C123.528 59.9835 108.55 44.1093 89.3679 35.5028C49.4226 17.5807 38.8751 -22.9194 20.953 17.0259Z" fill="#F2F2F2"/>
<path d="M219.015 188.06C218.165 188.058 217.334 187.802 216.63 187.324C215.927 186.846 215.383 186.168 215.068 185.378L195.459 143.128C195.037 142.064 194.83 140.927 194.848 139.783C194.866 138.638 195.109 137.509 195.563 136.458C196.018 135.408 196.675 134.457 197.497 133.66C198.319 132.864 199.289 132.237 200.354 131.816C201.418 131.394 202.555 131.187 203.699 131.205C204.843 131.223 205.973 131.466 207.024 131.92C208.074 132.375 209.025 133.032 209.821 133.854C210.618 134.676 211.245 135.646 211.666 136.71L228.797 178.96C229.019 179.516 229.12 180.113 229.093 180.71C229.056 181.528 228.783 182.317 228.308 182.984C227.833 183.65 227.175 184.165 226.415 184.467L218.097 187.761C217.593 187.96 219.542 188.06 219.015 188.06Z" fill="#FAB49E"/>
<path d="M114.785 196.613C114.337 196.408 113.928 196.127 113.577 195.782L106.964 189.316L106.971 189.309C106.261 188.505 105.881 187.463 105.907 186.391C105.934 185.318 106.365 184.296 107.113 183.528L156.115 133.418C157.674 131.824 159.785 130.888 162.013 130.803C164.241 130.718 166.418 131.49 168.094 132.96C169.77 134.431 170.819 136.488 171.025 138.708C171.231 140.929 170.578 143.143 169.2 144.897C169.005 145.144 168.798 145.38 168.578 145.605L119.576 195.715C118.966 196.338 118.179 196.759 117.322 196.919C116.465 197.08 115.579 196.973 114.785 196.613Z" fill="#FAB49E"/>
<path d="M196.976 279.572H188.03C186.905 279.571 185.827 279.123 185.031 278.328C184.236 277.532 183.788 276.454 183.787 275.329V200.769C183.788 199.644 184.236 198.566 185.031 197.77C185.827 196.975 186.905 196.528 188.03 196.526H196.976C198.101 196.528 199.179 196.975 199.974 197.77C200.77 198.566 201.217 199.644 201.219 200.769V275.329C201.217 276.454 200.77 277.532 199.974 278.328C199.179 279.123 198.101 279.571 196.976 279.572Z" fill="#FAB49E"/>
<path d="M176.858 279.572H167.911C166.787 279.571 165.708 279.123 164.913 278.328C164.117 277.532 163.67 276.454 163.669 275.329V200.769C163.67 199.644 164.117 198.566 164.913 197.77C165.708 196.975 166.787 196.528 167.911 196.526H176.858C177.982 196.528 179.061 196.975 179.856 197.77C180.652 198.566 181.099 199.644 181.1 200.769V275.329C181.099 276.454 180.652 277.532 179.856 278.328C179.061 279.123 177.982 279.571 176.858 279.572Z" fill="#FAB49E"/>
<path d="M182.176 115.381C199.248 115.381 213.088 101.542 213.088 84.4697C213.088 67.3977 199.248 53.5582 182.176 53.5582C165.104 53.5582 151.265 67.3977 151.265 84.4697C151.265 101.542 165.104 115.381 182.176 115.381Z" fill="#FAB49E"/>
<path d="M165.353 98.6846C163.349 98.6289 160.855 98.5594 158.934 97.156C158.362 96.721 157.892 96.1661 157.557 95.5303C157.222 94.8945 157.03 94.1931 156.994 93.4752C156.959 92.9651 157.043 92.4538 157.239 91.9814C157.434 91.509 157.737 91.0882 158.122 90.7519C159.125 89.904 160.59 89.7051 162.17 90.1692L160.534 78.2133L161.734 78.0488L163.658 92.1044L162.655 91.6442C161.492 91.1109 159.896 90.8395 158.904 91.6776C158.661 91.8967 158.471 92.1691 158.35 92.4735C158.229 92.7778 158.179 93.1061 158.206 93.4326C158.235 93.9669 158.379 94.4885 158.628 94.9621C158.877 95.4356 159.225 95.85 159.649 96.177C161.144 97.269 163.132 97.4099 165.386 97.473L165.353 98.6846Z" fill="#2F2E41"/>
<path d="M154.594 79.2444H148.065V80.4566H154.594V79.2444Z" fill="#2F2E41"/>
<path d="M175.202 79.2444H168.673V80.4566H175.202V79.2444Z" fill="#2F2E41"/>
<path d="M204.887 180.53L213.371 142.144C213.371 138.525 211.934 135.055 209.375 132.496C206.816 129.937 203.345 128.5 199.727 128.5H162.768C159.149 128.5 155.679 129.937 153.12 132.496C150.561 135.055 149.124 138.525 149.124 142.144L159.34 180.238C153.464 181.005 163.051 204.381 163.051 204.381L200.63 204.687C200.63 204.687 209.864 181.556 204.887 180.53Z" fill="#2F2E41"/>
<path d="M181.529 198.807H162.33V244.018H181.529V198.807Z" fill="#2F2E41"/>
<path d="M201.967 198.807H182.768V244.018H201.967V198.807Z" fill="#2F2E41"/>
<path d="M173.261 69.4566C172.308 66.4825 169.67 64.4743 166.733 63.6527C162.895 62.5794 158.867 63.566 155.07 64.3222C151.474 65.0387 147.461 65.6484 144.121 63.7268C141.656 62.309 139.946 59.4587 141.396 56.7025C141.654 56.1351 142.05 55.6412 142.547 55.2657C143.045 54.8902 143.628 54.645 144.245 54.5522C145.775 54.418 147.253 55.2155 148.786 55.2104C149.488 55.2353 150.179 55.0289 150.753 54.6228C151.327 54.2168 151.751 53.6337 151.961 52.963C152.361 51.6493 151.96 50.3067 152.053 48.9735C152.262 45.9927 155.881 48.7571 157.17 49.3083C157.745 49.6033 158.374 49.7754 159.019 49.8136C159.663 49.8518 160.308 49.7554 160.913 49.5303C162.307 48.9277 163.147 47.5933 163.981 46.3935C164.884 45.0079 166.211 43.9503 167.763 43.3774C169.315 42.8046 171.01 42.7469 172.597 43.213C175.902 44.2541 177.922 47.7719 177.581 51.1368C177.46 52.3254 179.319 52.317 179.439 51.1368C179.575 49.4926 179.282 47.8412 178.587 46.3449C177.892 44.8485 176.819 43.5588 175.475 42.6024C173.466 41.2685 171.017 40.7653 168.645 41.1985C166.272 41.6318 164.16 42.9677 162.752 44.9256C161.972 45.9845 161.151 47.772 159.686 47.9786C158.462 48.1512 157.199 47.2731 156.177 46.729C155.1 46.1561 153.883 45.5179 152.623 45.7511C151.969 45.9043 151.383 46.265 150.951 46.7794C150.519 47.2938 150.266 47.9341 150.228 48.6045C150.177 49.2487 150.184 49.8961 150.25 50.539C150.381 51.2468 150.328 51.9765 150.096 52.658C149.389 54.0302 147.123 53.0712 146.019 52.8635C145.299 52.6795 144.549 52.6449 143.816 52.7619C143.082 52.8789 142.381 53.145 141.754 53.5438C140.524 54.425 139.637 55.7049 139.244 57.166C138.85 58.6271 138.975 60.1793 139.597 61.5588C140.962 64.5526 144.199 66.2912 147.343 66.7239C152.276 67.4027 156.968 65.3916 161.836 65.0849C165.531 64.852 170.191 65.9631 171.469 69.9505C171.833 71.0848 173.627 70.5999 173.261 69.4566Z" fill="#2F2E41"/>
<path d="M312.669 280H48.6513C48.4718 279.996 48.301 279.922 48.1754 279.794C48.0498 279.665 47.9795 279.493 47.9795 279.313C47.9795 279.134 48.0498 278.961 48.1754 278.833C48.301 278.704 48.4718 278.63 48.6513 278.626H312.669C312.848 278.63 313.019 278.704 313.145 278.833C313.27 278.961 313.34 279.134 313.34 279.313C313.34 279.493 313.27 279.665 313.145 279.794C313.019 279.922 312.848 279.996 312.669 280Z" fill="#3F3D56"/>
<path d="M94.6928 131.265C87.0698 128.459 78.244 131.207 73.1418 137.41C70.5916 140.554 69.0315 144.384 68.6587 148.415C68.286 152.446 69.1174 156.497 71.0478 160.056C73.1476 163.89 76.5153 166.874 80.5738 168.497C84.3221 169.941 88.4571 170.028 92.2631 168.745C92.6086 169.025 93.0147 169.22 93.4491 169.315C93.8835 169.41 94.334 169.401 94.7647 169.291C95.2885 169.157 95.7643 168.879 96.138 168.488C96.5116 168.098 96.7682 167.61 96.8784 167.081C96.9886 166.551 96.9481 166.002 96.7614 165.494C96.5748 164.987 96.2495 164.542 95.8226 164.211C95.3956 163.879 94.8842 163.674 94.3464 163.618C93.8086 163.563 93.2661 163.659 92.7805 163.897C92.2949 164.135 91.8857 164.504 91.5995 164.962C91.3132 165.421 91.1615 165.951 91.1614 166.491C91.166 166.605 91.1774 166.718 91.1956 166.83C85.2366 168.694 78.6534 166.405 74.6697 161.566C72.5279 158.875 71.1926 155.632 70.8187 152.214C70.4449 148.795 71.0477 145.341 72.5572 142.251C74.0268 139.299 76.283 136.809 79.0771 135.058C81.8712 133.307 85.0947 132.361 88.3922 132.325C95.3061 132.347 101.848 136.91 103.23 143.876C103.576 145.668 103.531 147.514 103.096 149.286C102.662 151.059 101.849 152.716 100.713 154.144C99.5597 155.544 97.9104 156.924 96.0015 156.941C95.674 156.917 95.3624 156.79 95.112 156.578C94.563 156.15 94.135 155.587 93.8703 154.944C93.6057 154.3 93.5135 153.599 93.6029 152.909C93.82 150.968 94.1748 147.794 94.3887 145.881C94.4571 144.744 94.6555 143.618 94.9799 142.525C95.1096 142.355 95.1914 142.153 95.2169 141.94C95.649 141.119 96.4835 140.252 97.4631 140.384C97.7398 140.45 98.0312 140.409 98.2785 140.269C98.5258 140.128 98.7106 139.899 98.7956 139.628C98.8703 139.351 98.8327 139.056 98.6911 138.806C98.5494 138.557 98.3152 138.373 98.0391 138.295C97.3281 138.189 96.6017 138.261 95.9254 138.505C95.249 138.748 94.6439 139.156 94.1643 139.692C93.9483 139.93 93.7545 140.188 93.5852 140.462C87.8782 138.135 80.6792 140.326 77.7498 145.939C76.1311 149.041 75.905 152.853 77.6889 155.938C79.2783 158.686 82.3455 160.688 85.5921 160.423C87.5587 160.249 89.4098 159.419 90.8478 158.067C91.1156 157.822 91.4622 157.681 91.825 157.669C92.1877 157.658 92.5426 157.776 92.8256 158.003L92.8372 158.012C93.5934 158.581 94.4847 158.942 95.4233 159.061C96.3619 159.179 97.3152 159.051 98.1891 158.689C101.835 157.317 104.281 153.511 105.174 149.858C107.111 141.926 102.173 134.018 94.6928 131.265ZM86.4676 156.743C85.319 157.01 84.1132 156.868 83.0584 156.34C82.0036 155.813 81.1661 154.933 80.6907 153.854C79.2464 150.966 80.1909 143.95 85.2979 142.259C87.7244 141.432 90.3672 141.501 92.7469 142.455C92.617 142.956 92.5173 143.464 92.4484 143.977C92.0404 146.936 91.2266 153.155 91.1692 153.349C90.6163 155.803 88.9146 156.23 86.4676 156.743Z" fill="#3F3D56"/>
<path d="M40.8494 79.4004C34.1189 76.9231 26.3264 79.349 21.8216 84.8254C19.57 87.6015 18.1925 90.9831 17.8634 94.5424C17.5343 98.1016 18.2684 101.678 19.9727 104.82C21.8267 108.205 24.8 110.84 28.3834 112.273C31.6929 113.548 35.3437 113.625 38.7041 112.492C39.0091 112.739 39.3677 112.911 39.7512 112.995C40.1347 113.079 40.5325 113.071 40.9128 112.974C41.3753 112.856 41.7954 112.61 42.1253 112.265C42.4552 111.92 42.6817 111.49 42.779 111.023C42.8763 110.555 42.8405 110.07 42.6758 109.622C42.511 109.174 42.2238 108.781 41.8468 108.488C41.4699 108.196 41.0183 108.014 40.5435 107.965C40.0687 107.916 39.5897 108.002 39.1609 108.212C38.7321 108.421 38.3709 108.747 38.1182 109.152C37.8655 109.557 37.7315 110.025 37.7314 110.502C37.7355 110.602 37.7456 110.702 37.7616 110.801C32.5003 112.447 26.6879 110.426 23.1706 106.153C21.2795 103.778 20.1006 100.915 19.7705 97.8963C19.4404 94.878 19.9726 91.8279 21.3055 89.0997C22.6029 86.4932 24.595 84.2956 27.062 82.7492C29.5289 81.2028 32.375 80.3677 35.2864 80.336C41.3908 80.356 47.167 84.3841 48.3865 90.5352C48.6926 92.1171 48.6525 93.7466 48.269 95.3115C47.8855 96.8765 47.1676 98.3398 46.1647 99.601C45.1463 100.837 43.6902 102.055 42.0048 102.07C41.7156 102.049 41.4405 101.937 41.2194 101.749C40.7347 101.372 40.3568 100.875 40.1231 100.307C39.8895 99.7386 39.8081 99.1194 39.887 98.5102C40.0787 96.7963 40.392 93.9942 40.5808 92.3053C40.6412 91.3009 40.8163 90.3068 41.1028 89.3422C41.2173 89.1918 41.2895 89.0135 41.312 88.8259C41.6936 88.1008 42.4303 87.3352 43.2953 87.452C43.5395 87.5103 43.7968 87.4738 44.0152 87.3498C44.2335 87.2259 44.3967 87.0236 44.4718 86.784C44.5377 86.5394 44.5045 86.2788 44.3795 86.0585C44.2544 85.8383 44.0476 85.6763 43.8038 85.6076C43.176 85.5136 42.5347 85.5771 41.9376 85.7923C41.3404 86.0075 40.8061 86.3678 40.3827 86.8407C40.192 87.0512 40.0208 87.2786 39.8713 87.5201C34.8326 85.4661 28.4764 87.4002 25.89 92.3564C25.1426 93.7057 24.746 95.221 24.7366 96.7635C24.7272 98.3059 25.1053 99.826 25.8362 101.184C27.2395 103.611 29.9476 105.379 32.8141 105.144C34.5504 104.991 36.1848 104.258 37.4544 103.064C37.6909 102.848 37.9969 102.723 38.3172 102.713C38.6374 102.703 38.9508 102.807 39.2007 103.008L39.2109 103.016C39.8785 103.518 40.6656 103.837 41.4943 103.942C42.3229 104.047 43.1646 103.933 43.9362 103.613C47.1556 102.402 49.3151 99.0422 50.1029 95.8168C51.8137 88.8128 47.4534 81.8312 40.8494 79.4004ZM33.5872 101.895C32.573 102.131 31.5084 102.005 30.5771 101.54C29.6458 101.074 28.9064 100.298 28.4866 99.3448C27.2114 96.7945 28.0453 90.5996 32.5544 89.1073C34.6968 88.3767 37.0302 88.4381 39.1312 89.2803C39.0165 89.7225 38.9285 90.1711 38.8677 90.6239C38.5075 93.2363 37.789 98.7273 37.7383 98.8983C37.2501 101.065 35.7476 101.442 33.5872 101.895Z" fill="#3F3D56"/>
<path d="M189.488 148.765C182.757 146.288 174.965 148.713 170.46 154.19C168.208 156.966 166.831 160.348 166.502 163.907C166.172 167.466 166.907 171.043 168.611 174.185C170.465 177.57 173.438 180.204 177.022 181.638C180.331 182.912 183.982 182.989 187.342 181.856C187.647 182.103 188.006 182.276 188.389 182.359C188.773 182.443 189.171 182.436 189.551 182.338C190.013 182.22 190.434 181.975 190.763 181.63C191.093 181.285 191.32 180.854 191.417 180.387C191.515 179.92 191.479 179.434 191.314 178.986C191.149 178.538 190.862 178.146 190.485 177.853C190.108 177.56 189.656 177.379 189.182 177.33C188.707 177.281 188.228 177.366 187.799 177.576C187.37 177.786 187.009 178.112 186.756 178.517C186.504 178.922 186.37 179.389 186.37 179.867C186.374 179.967 186.384 180.067 186.4 180.166C181.138 181.811 175.326 179.79 171.809 175.518C169.918 173.142 168.739 170.279 168.409 167.261C168.079 164.242 168.611 161.192 169.944 158.464C171.241 155.858 173.233 153.66 175.7 152.114C178.167 150.567 181.013 149.732 183.925 149.7C190.029 149.72 195.805 153.749 197.025 159.9C197.331 161.482 197.291 163.111 196.907 164.676C196.524 166.241 195.806 167.704 194.803 168.965C193.785 170.201 192.328 171.42 190.643 171.435C190.354 171.414 190.079 171.301 189.858 171.114C189.373 170.736 188.995 170.239 188.761 169.671C188.528 169.103 188.446 168.484 188.525 167.875C188.717 166.161 189.03 163.359 189.219 161.67C189.279 160.665 189.455 159.671 189.741 158.707C189.855 158.556 189.928 158.378 189.95 158.19C190.332 157.465 191.068 156.7 191.933 156.816C192.178 156.875 192.435 156.838 192.653 156.714C192.872 156.59 193.035 156.388 193.11 156.148C193.176 155.904 193.143 155.643 193.018 155.423C192.893 155.203 192.686 155.041 192.442 154.972C191.814 154.878 191.173 154.941 190.576 155.157C189.979 155.372 189.444 155.732 189.021 156.205C188.83 156.416 188.659 156.643 188.51 156.885C183.471 154.831 177.115 156.765 174.528 161.721C173.781 163.07 173.384 164.585 173.375 166.128C173.365 167.67 173.744 169.19 174.474 170.549C175.878 172.975 178.586 174.743 181.452 174.509C183.189 174.355 184.823 173.623 186.093 172.428C186.329 172.212 186.635 172.088 186.955 172.077C187.276 172.067 187.589 172.172 187.839 172.372L187.849 172.38C188.517 172.882 189.304 173.201 190.132 173.306C190.961 173.411 191.803 173.298 192.574 172.978C195.794 171.767 197.953 168.407 198.741 165.181C200.452 158.177 196.092 151.196 189.488 148.765ZM182.225 171.259C181.211 171.495 180.147 171.37 179.215 170.904C178.284 170.438 177.545 169.662 177.125 168.709C175.85 166.159 176.683 159.964 181.193 158.472C183.335 157.741 185.668 157.803 187.769 158.645C187.655 159.087 187.567 159.536 187.506 159.988C187.146 162.601 186.427 168.092 186.376 168.263C185.888 170.43 184.386 170.807 182.225 171.259Z" fill="#F2F2F2"/>
<path d="M170.076 138.292C168.377 137.712 166.542 137.665 164.817 138.157C163.091 138.649 161.557 139.656 160.42 141.045C159.277 142.453 158.578 144.169 158.411 145.976C158.244 147.782 158.617 149.597 159.482 151.191C160.422 152.909 161.931 154.246 163.75 154.973C165.429 155.62 167.282 155.659 168.987 155.084C169.142 155.209 169.324 155.297 169.518 155.339C169.713 155.382 169.915 155.378 170.108 155.329C170.342 155.269 170.556 155.144 170.723 154.969C170.89 154.794 171.005 154.576 171.055 154.338C171.104 154.101 171.086 153.855 171.002 153.628C170.919 153.4 170.773 153.201 170.582 153.052C170.39 152.904 170.161 152.812 169.92 152.787C169.679 152.762 169.436 152.806 169.219 152.912C169.001 153.018 168.818 153.184 168.69 153.389C168.561 153.595 168.493 153.832 168.493 154.074C168.495 154.125 168.5 154.176 168.509 154.226C167.179 154.606 165.767 154.585 164.45 154.165C163.133 153.746 161.969 152.946 161.104 151.867C160.145 150.662 159.547 149.209 159.379 147.677C159.212 146.146 159.482 144.598 160.158 143.214C160.816 141.891 161.827 140.776 163.079 139.991C164.331 139.206 165.775 138.783 167.253 138.767C170.35 138.777 173.281 140.821 173.9 143.942C174.056 144.745 174.035 145.572 173.841 146.366C173.646 147.16 173.282 147.903 172.773 148.543C172.53 148.889 172.216 149.18 171.852 149.397C171.488 149.613 171.083 149.749 170.662 149.796C170.515 149.785 170.375 149.728 170.263 149.633C170.017 149.441 169.826 149.189 169.707 148.901C169.588 148.612 169.547 148.298 169.587 147.989C169.684 147.119 169.843 145.697 169.939 144.84C169.97 144.331 170.059 143.826 170.204 143.337C170.262 143.26 170.299 143.17 170.31 143.075C170.504 142.707 170.878 142.318 171.317 142.378C171.441 142.407 171.571 142.389 171.682 142.326C171.793 142.263 171.876 142.16 171.914 142.039C171.947 141.914 171.93 141.782 171.867 141.67C171.803 141.559 171.698 141.476 171.575 141.442C171.256 141.394 170.931 141.426 170.628 141.535C170.325 141.645 170.054 141.827 169.839 142.067C169.742 142.174 169.655 142.29 169.579 142.412C168.3 141.891 166.875 141.852 165.57 142.304C164.264 142.755 163.168 143.666 162.484 144.866C162.105 145.551 161.904 146.32 161.899 147.103C161.894 147.885 162.086 148.657 162.457 149.346C162.803 149.976 163.317 150.498 163.942 150.853C164.568 151.208 165.279 151.382 165.998 151.355C166.879 151.278 167.708 150.906 168.353 150.3C168.473 150.19 168.628 150.127 168.791 150.122C168.953 150.117 169.112 150.17 169.239 150.271L169.244 150.275C169.583 150.53 169.982 150.692 170.403 150.745C170.823 150.798 171.25 150.741 171.642 150.579C173.276 149.964 174.371 148.259 174.771 146.622C175.639 143.068 173.427 139.525 170.076 138.292ZM166.39 149.707C165.876 149.826 165.335 149.763 164.863 149.526C164.39 149.29 164.015 148.896 163.802 148.413C163.155 147.118 163.578 143.975 165.866 143.218C166.953 142.847 168.137 142.878 169.204 143.305C169.145 143.53 169.101 143.757 169.07 143.987C168.887 145.313 168.522 148.099 168.497 148.186C168.249 149.286 167.487 149.477 166.39 149.707Z" fill="#F2F2F2"/>
<path d="M204.774 142.93C204.547 141.15 203.781 139.482 202.579 138.149C201.378 136.817 199.797 135.883 198.05 135.474C196.282 135.068 194.434 135.196 192.739 135.842C191.044 136.487 189.578 137.621 188.528 139.1C187.4 140.701 186.864 142.644 187.012 144.597C187.171 146.39 187.951 148.07 189.218 149.348C189.174 149.542 189.176 149.744 189.223 149.937C189.271 150.131 189.363 150.31 189.492 150.462C189.65 150.646 189.855 150.783 190.086 150.856C190.317 150.929 190.564 150.936 190.799 150.876C191.033 150.816 191.246 150.691 191.414 150.516C191.581 150.341 191.696 150.122 191.745 149.885C191.794 149.648 191.776 149.402 191.692 149.174C191.608 148.947 191.462 148.748 191.271 148.6C191.079 148.451 190.85 148.359 190.609 148.335C190.368 148.31 190.125 148.354 189.908 148.46C189.863 148.484 189.82 148.511 189.778 148.541C188.852 147.515 188.249 146.238 188.045 144.87C187.842 143.503 188.047 142.106 188.635 140.854C189.295 139.462 190.336 138.285 191.637 137.46C192.938 136.635 194.447 136.196 195.988 136.194C197.465 136.202 198.911 136.619 200.167 137.397C201.423 138.175 202.44 139.286 203.105 140.605C204.46 143.39 203.915 146.922 201.386 148.852C200.733 149.345 199.982 149.691 199.183 149.866C198.385 150.041 197.557 150.041 196.759 149.866C196.34 149.801 195.941 149.647 195.587 149.416C195.232 149.184 194.931 148.88 194.704 148.523C194.649 148.386 194.639 148.236 194.675 148.093C194.738 147.788 194.88 147.505 195.087 147.271C195.294 147.038 195.558 146.862 195.853 146.762L198.835 145.692C199.306 145.495 199.798 145.352 200.301 145.267C200.395 145.286 200.493 145.279 200.583 145.247C200.8 145.231 201.018 145.279 201.208 145.385C201.398 145.491 201.552 145.65 201.652 145.844C201.68 145.968 201.755 146.077 201.86 146.149C201.965 146.221 202.094 146.25 202.22 146.231C202.346 146.206 202.457 146.133 202.53 146.026C202.602 145.92 202.63 145.79 202.606 145.663C202.509 145.356 202.337 145.078 202.105 144.854C201.874 144.63 201.59 144.467 201.28 144.38C201.142 144.34 201 144.313 200.856 144.299C200.761 142.921 200.168 141.625 199.188 140.652C198.208 139.679 196.907 139.095 195.528 139.01C194.747 138.971 193.968 139.129 193.263 139.47C192.558 139.81 191.95 140.322 191.494 140.958C191.081 141.546 190.839 142.238 190.795 142.956C190.752 143.673 190.909 144.389 191.25 145.022C191.708 145.779 192.407 146.36 193.234 146.672C193.386 146.731 193.511 146.843 193.587 146.986C193.663 147.13 193.686 147.296 193.65 147.455L193.649 147.461C193.569 147.878 193.6 148.307 193.737 148.708C193.875 149.109 194.115 149.467 194.433 149.747C195.704 150.944 197.717 151.177 199.363 150.815C202.936 150.029 205.142 146.482 204.774 142.93ZM192.903 144.649C192.569 144.239 192.388 143.726 192.392 143.198C192.396 142.669 192.585 142.159 192.925 141.755C193.802 140.604 196.81 139.6 198.498 141.32C199.31 142.133 199.803 143.21 199.889 144.355C199.662 144.402 199.438 144.462 199.218 144.536C197.947 144.955 195.285 145.855 195.196 145.87C194.099 146.132 193.592 145.532 192.903 144.649Z" fill="#F2F2F2"/>
<path d="M91.1628 61.0699C85.8348 59.1089 79.6662 61.0292 76.1001 65.3644C74.3177 67.562 73.2273 70.239 72.9668 73.0565C72.7062 75.874 73.2873 78.7055 74.6366 81.1927C76.1041 83.8722 78.4579 85.958 81.2946 87.0925C83.9144 88.1013 86.8044 88.1625 89.4646 87.2656C89.706 87.4612 89.9899 87.5976 90.2935 87.6639C90.5971 87.7301 90.9119 87.7244 91.2129 87.6472C91.5791 87.5537 91.9116 87.3594 92.1728 87.0863C92.434 86.8133 92.6133 86.4724 92.6903 86.1024C92.7673 85.7325 92.739 85.3484 92.6086 84.9937C92.4781 84.6391 92.2507 84.3282 91.9524 84.0964C91.654 83.8646 91.2965 83.7211 90.9206 83.6824C90.5448 83.6436 90.1656 83.7112 89.8261 83.8773C89.4867 84.0433 89.2008 84.3013 89.0007 84.6219C88.8007 84.9425 88.6946 85.3127 88.6945 85.6906C88.6978 85.7699 88.7057 85.849 88.7184 85.9274C84.5535 87.23 79.9524 85.63 77.168 82.2478C75.671 80.3672 74.7378 78.1009 74.4765 75.7115C74.2152 73.3222 74.6365 70.9077 75.6916 68.748C76.7187 66.6847 78.2956 64.945 80.2485 63.7209C82.2014 62.4968 84.4544 61.8357 86.7591 61.8105C91.5914 61.8263 96.1639 65.0151 97.1293 69.8844C97.3716 71.1366 97.3399 72.4265 97.0363 73.6654C96.7326 74.9042 96.1644 76.0626 95.3705 77.061C94.5643 78.039 93.4116 79.0039 92.0774 79.0156C91.8485 78.999 91.6308 78.91 91.4557 78.7615C91.072 78.4629 90.7729 78.0693 90.5879 77.6196C90.4029 77.1699 90.3385 76.6797 90.401 76.1975C90.5527 74.8408 90.8007 72.6226 90.9502 71.2857C90.998 70.4906 91.1367 69.7035 91.3634 68.94C91.454 68.8209 91.5112 68.6798 91.529 68.5313C91.8311 67.9573 92.4143 67.3512 93.099 67.4437C93.2924 67.4898 93.496 67.4609 93.6689 67.3628C93.8417 67.2646 93.9709 67.1046 94.0303 66.9149C94.0825 66.7213 94.0562 66.515 93.9572 66.3406C93.8583 66.1663 93.6945 66.038 93.5016 65.9836C93.0046 65.9092 92.497 65.9595 92.0242 66.1299C91.5515 66.3002 91.1285 66.5854 90.7934 66.9598C90.6424 67.1264 90.5069 67.3064 90.3886 67.4976C86.3998 65.8716 81.3682 67.4027 79.3208 71.326C78.7291 72.3941 78.4152 73.5937 78.4077 74.8147C78.4003 76.0357 78.6996 77.2391 79.2782 78.3143C79.8174 79.2979 80.6197 80.112 81.5952 80.6656C82.5707 81.2192 83.681 81.4905 84.802 81.449C86.1765 81.3277 87.4702 80.7477 88.4753 79.8023C88.6625 79.6312 88.9048 79.5327 89.1583 79.5245C89.4118 79.5164 89.6599 79.5992 89.8577 79.7579L89.8657 79.7643C90.3942 80.1617 91.0173 80.4143 91.6733 80.4972C92.3293 80.5801 92.9955 80.4905 93.6063 80.2371C96.1549 79.2784 97.8644 76.6186 98.488 74.0653C99.8422 68.5209 96.3906 62.9942 91.1628 61.0699ZM85.4139 78.877C84.6111 79.0637 83.7683 78.9641 83.0311 78.5955C82.2939 78.2269 81.7086 77.6124 81.3763 76.8581C80.3668 74.8393 81.0269 69.9354 84.5964 68.754C86.2924 68.1756 88.1395 68.2242 89.8027 68.891C89.7119 69.241 89.6422 69.5962 89.5941 69.9546C89.3089 72.0226 88.7401 76.3694 88.7 76.5047C88.3135 78.2201 87.1242 78.5186 85.4139 78.877Z" fill="#3F3D56"/>
<path d="M188.567 176.733C188.877 175.94 189.416 175.259 190.117 174.776C190.817 174.293 191.646 174.031 192.496 174.024L220.624 172.865C221.769 172.857 222.904 173.074 223.966 173.504C225.027 173.935 225.993 174.57 226.808 175.374C227.623 176.178 228.272 177.135 228.718 178.19C229.163 179.245 229.397 180.377 229.404 181.522C229.412 182.667 229.194 183.803 228.763 184.863C228.331 185.924 227.695 186.89 226.891 187.704C226.086 188.519 225.129 189.167 224.074 189.612C223.018 190.057 221.886 190.289 220.741 190.296L192.613 191.454C192.015 191.46 191.422 191.338 190.875 191.097C190.126 190.766 189.489 190.226 189.04 189.542C188.59 188.858 188.348 188.059 188.342 187.24L188.282 178.294C188.278 177.761 188.374 177.231 188.567 176.733Z" fill="#FAB49E"/>
</g>
<defs>
<clipPath id="clip0_40_285">
<rect width="312.681" height="280" fill="white" transform="translate(0.659668)"/>
</clipPath>
</defs>
</svg>
