<svg width="368" height="280" viewBox="0 0 368 280" fill="none" xmlns="http://www.w3.org/2000/svg">
<g clip-path="url(#clip0_40_338)">
<path d="M223.005 84.3756C223.462 84.3966 223.915 84.2765 224.302 84.0315C224.689 83.7865 224.992 83.4284 225.168 83.0058C225.345 82.5832 225.388 82.1165 225.29 81.6689C225.193 81.2213 224.96 80.8145 224.624 80.5036C224.568 80.2797 224.527 80.1189 224.471 79.895C224.491 79.8463 224.511 79.7976 224.532 79.749C226.588 74.8448 233.559 74.8786 235.598 79.7901C237.408 84.1492 239.712 88.5158 240.279 93.1248C240.529 95.1621 240.424 97.2274 239.968 99.2286C244.219 89.9556 246.426 79.8769 246.441 69.6759C246.441 67.1161 246.299 64.5582 246.015 62.0142C245.779 59.9287 245.453 57.8581 245.035 55.8023C242.757 44.6477 237.865 34.1926 230.761 25.2958C227.323 23.4198 224.543 20.535 222.794 17.0301C222.161 15.7702 221.714 14.4253 221.466 13.0372C221.853 13.0881 222.928 7.18125 222.635 6.81884C223.176 5.99866 224.143 5.59096 224.734 4.79062C227.67 0.810245 231.714 1.50524 233.826 6.91425C238.337 9.19086 238.38 12.9665 235.613 16.5977C233.852 18.908 233.61 22.034 232.065 24.5073C232.224 24.7108 232.389 24.9079 232.548 25.1114C235.454 28.8477 237.986 32.8599 240.109 37.0903C239.509 32.3984 240.395 26.7458 241.907 23.1022C243.628 18.9506 246.854 15.4541 249.694 11.8651C253.106 7.55413 260.103 9.43553 260.704 14.9004C260.71 14.9533 260.715 15.0062 260.721 15.0591C260.299 15.2971 259.886 15.5497 259.482 15.817C258.974 16.1562 258.581 16.6408 258.353 17.2073C258.126 17.7739 258.075 18.3959 258.207 18.992C258.339 19.5881 258.648 20.1304 259.094 20.5478C259.539 20.9653 260.1 21.2384 260.704 21.3314L260.765 21.3409C260.615 22.8616 260.349 24.3686 259.971 25.8489C263.615 39.9415 255.747 45.0744 244.514 45.3049C244.266 45.4321 244.024 45.5592 243.776 45.6801C245.909 51.7249 247.247 58.0214 247.757 64.4112C248.045 68.1811 248.028 71.9681 247.706 75.7352L247.725 75.6016C248.539 71.4127 250.773 67.633 254.051 64.9008C258.92 60.9015 265.798 59.4288 271.05 56.2141C273.579 54.6667 276.818 56.6664 276.377 59.5976C276.37 59.6444 276.363 59.6912 276.356 59.738C275.573 60.0569 274.81 60.4243 274.073 60.8379C273.651 61.076 273.238 61.3286 272.834 61.5959C272.326 61.935 271.933 62.4197 271.706 62.9862C271.478 63.5528 271.427 64.1748 271.559 64.7709C271.691 65.367 272 65.9093 272.446 66.3267C272.891 66.7442 273.452 67.0173 274.056 67.1103L274.118 67.1198C274.162 67.1262 274.2 67.1326 274.245 67.139C272.907 70.3332 271.029 73.2733 268.694 75.8306C266.416 88.1329 256.629 89.3001 246.161 85.7175H246.154C245.006 90.7087 243.342 95.567 241.189 100.214H223.449C223.386 100.017 223.329 99.8136 223.271 99.6165C224.913 99.7197 226.562 99.6215 228.18 99.3241C226.864 97.709 225.548 96.0813 224.231 94.4664C224.202 94.4362 224.174 94.4043 224.149 94.371C223.481 93.5445 222.807 92.7242 222.14 91.8977L222.139 91.8967C222.104 89.363 222.394 86.8353 223.004 84.3759L223.005 84.3756Z" fill="#F2F2F2"/>
<path d="M279.96 38.9769C276.662 26.9511 303.265 16.6388 310.251 26.3232C311.223 24.9464 314.813 24.1101 316.46 24.5324C318.107 24.9548 319.492 26.0106 320.844 27.0328C322.702 28.4603 324.628 29.9385 325.768 31.9912C326.917 34.0353 327.095 36.8229 325.549 38.5967C324.324 40.0074 320.709 40.9197 318.867 41.2913C317.583 41.5532 316.502 41.7644 315.573 41.9164C314.729 40.7004 314.34 39.2261 314.475 37.752C313.849 38.1739 313.325 38.729 312.94 39.3774C312.554 40.0258 312.317 40.7516 312.245 41.5025C312.219 41.8151 322.626 80.1055 322.626 80.1055C321.376 80.8171 320.061 81.4082 318.698 81.8709C316.003 77.7521 313.939 73.2536 312.574 68.5246C312.26 71.6868 312.3 74.8741 312.692 78.0275C312.901 79.7957 313.2 81.5522 313.588 83.29C301.221 85.9593 282.621 85.0808 274.529 73.728C274.527 73.681 274.526 73.634 274.525 73.587C274.518 73.1388 274.357 72.7069 274.067 72.365C273.777 72.0231 273.377 71.7927 272.936 71.713C272.495 71.6334 272.04 71.7096 271.649 71.9286C271.258 72.1475 270.955 72.4956 270.793 72.9133C270.597 73.4142 270.416 73.8477 270.255 74.1925C267.898 65.7624 270.947 56.0061 279.96 38.9769Z" fill="#2F2E41"/>
<path d="M258.916 240.592V240.986C258.901 240.855 258.901 240.723 258.916 240.592Z" fill="#2F2E41"/>
<path d="M271.027 172.534C271.342 172.449 271.662 172.387 271.985 172.348C271.614 172.409 271.295 172.471 271.027 172.534Z" fill="#2F2E41"/>
<path d="M270.747 172.606C270.832 172.582 270.926 172.558 271.027 172.534C270.933 172.559 270.843 172.577 270.747 172.606Z" fill="#2F2E41"/>
<path d="M360.22 279.998H314.89C314.244 279.482 313.794 278.759 313.618 277.951C313.441 277.143 313.548 276.298 313.92 275.559C315.158 272.719 312.732 270.124 312.732 270.124C311.908 269.159 311.335 268.006 311.064 266.766C310.793 265.527 310.832 264.239 311.178 263.018C312.379 258.824 307.673 246.984 307.673 246.984C307.673 246.984 305.135 262.272 302.026 279.998H258.916C258.194 278.768 257.813 277.368 257.813 275.941C257.813 274.515 258.194 273.114 258.916 271.884C261.429 267.624 258.916 266.807 258.916 266.807C258.916 266.807 256.404 262.041 258.916 258.579C261.429 255.118 258.916 240.986 258.916 240.986C259.011 241.611 259.727 240.475 260.829 238.093C262.506 234.469 265.07 227.951 267.66 220.385C269.512 214.985 271.379 209.044 272.939 203.234H272.943C273.352 201.708 273.74 200.196 274.106 198.698C274.821 195.759 275.435 192.904 275.901 190.223C276.912 184.448 277.245 179.487 276.469 176.26C275.825 173.575 274.416 172.095 271.985 172.349C273.288 172.133 275.196 171.928 277.548 171.735C277.972 171.701 278.411 171.667 278.866 171.629C296.407 170.304 334.041 169.542 334.041 169.542L345.568 190.185L360.167 216.333C360.167 216.333 359.769 251.411 360.22 279.998Z" fill="#2F2E41"/>
<path d="M311.837 80.3224L285.279 74.6889L280.006 85.303L262.248 95.5837C262.248 95.5837 273.695 142.385 273.63 148.968C273.464 165.679 246.724 203.142 266.921 200.26C287.119 197.378 291.221 185.306 297.705 187.215C303.553 188.936 310.693 196.594 315.473 191.117C320.253 185.64 321.937 191.965 324.959 192.184C326.396 192.287 325.531 185.267 329.145 192.402C332.759 199.536 351.924 189.932 345.429 183.437C334.61 172.619 332.412 92.8713 332.412 92.8713L320.369 89.1659L311.837 80.3224Z" fill="#E6E6E6"/>
<path d="M261.746 250.286C262.814 249.013 263.342 247.375 263.219 245.719C263.097 244.062 262.333 242.52 261.09 241.418C260.834 241.198 260.56 241 260.271 240.825L264.711 219.033L254.446 212.889L251.591 243.4C250.959 244.654 250.76 246.081 251.025 247.46C251.291 248.839 252.005 250.091 253.056 251.021C253.66 251.545 254.36 251.945 255.118 252.198C255.876 252.45 256.676 252.551 257.473 252.495C258.27 252.438 259.048 252.226 259.763 251.868C260.478 251.511 261.115 251.017 261.639 250.413C261.675 250.371 261.711 250.329 261.746 250.286Z" fill="#A0616A"/>
<path d="M293.62 135.415C293.555 134.714 292.662 134.396 291.423 133.957C290.179 133.574 288.997 133.014 287.913 132.294C285.171 130.314 286.25 128.242 287.742 125.38C288.034 124.823 288.337 124.243 288.621 123.641C289.465 121.858 288.121 114.5 284.618 101.768C283.539 97.8489 283.543 95.0807 282.797 93.244C282.054 91.4074 280.566 90.5023 276.51 90.313C271.608 90.0655 266.808 91.7718 263.162 95.0579C263.063 95.145 262.961 95.2397 262.863 95.3306C262.677 95.5048 262.495 95.6828 262.317 95.8646C258.945 99.2568 257.016 103.821 256.932 108.604L256.913 109.418L256.076 148.317L253.725 182.452L250.483 229.474L252.884 229.591L262.465 230.068L263.627 230.125L266.384 218.56L269.702 204.643L270.921 199.531L274.704 183.671L276.469 176.26L277.548 171.735L277.987 169.887L280.131 160.904C280.18 160.715 285.11 141.262 290.795 138.009C292.915 136.797 293.68 136.093 293.62 135.415Z" fill="#E6E6E6"/>
<path d="M357.395 250.054C356.197 248.904 355.496 247.331 355.44 245.672C355.384 244.012 355.978 242.396 357.095 241.168C357.326 240.921 357.577 240.695 357.846 240.49L351.091 219.3L360.637 212.09L366.752 242.117C367.515 243.296 367.866 244.694 367.75 246.094C367.635 247.493 367.06 248.815 366.114 249.852C365.57 250.438 364.917 250.91 364.19 251.243C363.464 251.576 362.679 251.762 361.881 251.792C361.082 251.821 360.286 251.693 359.537 251.415C358.788 251.137 358.101 250.713 357.516 250.17C357.475 250.132 357.435 250.093 357.395 250.054Z" fill="#A0616A"/>
<path d="M362.065 204.075C362.065 204.075 354.619 177.88 356.89 175.044C359.161 172.208 352.455 171.654 355.344 166.373C358.234 161.092 354.246 160.208 354.246 160.208L352.081 148.065L348.212 118.239L348.094 117.352L346.969 108.675C346.655 106.196 345.844 103.807 344.585 101.649C343.326 99.4909 341.645 97.6091 339.642 96.1158C339.539 96.0374 339.435 95.9622 339.33 95.887C338.854 95.5441 338.367 95.2263 337.87 94.9338C334.156 92.7426 329.794 91.9141 325.535 92.5908C317.51 93.8406 320.008 96.8333 318.706 104.851C316.591 117.886 316.042 125.344 317.074 127.029C317.421 127.597 317.786 128.14 318.134 128.661C319.926 131.351 321.221 133.291 318.707 135.559C317.705 136.388 316.59 137.07 315.396 137.585C314.214 138.157 313.358 138.568 313.37 139.271C313.383 139.953 314.219 140.568 316.456 141.544C319.166 142.731 322.078 147.216 324.463 151.798C326.355 155.491 328.043 159.286 329.518 163.164L350.015 220.812L353.358 230.213L354.512 230.031L363.982 228.53L366.357 228.154L362.065 204.075Z" fill="#E6E6E6"/>
<path d="M300.632 74.2909C312.599 74.2909 322.299 64.5902 322.299 52.6238C322.299 40.6575 312.599 30.9568 300.632 30.9568C288.666 30.9568 278.965 40.6575 278.965 52.6238C278.965 64.5902 288.666 74.2909 300.632 74.2909Z" fill="#A0616A"/>
<path d="M268.134 40.6663C264.836 28.6406 291.439 18.3283 298.425 28.0126C299.397 26.6358 302.987 25.7995 304.634 26.2218C306.281 26.6442 307.666 27.7001 309.018 28.7222C310.876 30.1497 312.802 31.628 313.943 33.6806C315.091 35.7248 315.269 38.5123 313.723 40.2862C312.498 41.6968 308.883 42.6091 307.041 42.9808C305.757 43.2426 304.676 43.4538 303.747 43.6058C302.903 42.3899 302.514 40.9155 302.649 39.4415C302.023 39.8633 301.499 40.4184 301.114 41.0668C300.728 41.7153 300.491 42.441 300.419 43.1919C300.393 43.5045 310.8 81.7949 310.8 81.7949C309.55 82.5065 308.235 83.0976 306.872 83.5603C304.177 79.4415 302.113 74.943 300.748 70.214C300.435 73.3762 300.474 76.5635 300.867 79.7169C301.075 81.4852 301.374 83.2416 301.762 84.9794C289.395 87.6487 270.795 86.7702 262.703 75.4174C262.701 75.3704 262.7 75.3234 262.699 75.2764C262.692 74.8283 262.531 74.3963 262.241 74.0544C261.951 73.7126 261.551 73.4821 261.11 73.4025C260.669 73.3229 260.214 73.3991 259.823 73.618C259.432 73.837 259.13 74.1851 258.967 74.6027C258.771 75.1036 258.59 75.5371 258.429 75.882C256.072 67.4518 259.121 57.6955 268.134 40.6663Z" fill="#2F2E41"/>
<path d="M160.679 115.535C160.222 115.556 159.769 115.436 159.382 115.191C158.995 114.946 158.692 114.588 158.515 114.165C158.339 113.743 158.296 113.276 158.394 112.829C158.491 112.381 158.724 111.974 159.06 111.663C159.116 111.439 159.157 111.279 159.213 111.055C159.193 111.006 159.173 110.957 159.152 110.909C157.096 106.005 150.125 106.038 148.086 110.95C146.276 115.309 143.972 119.675 143.405 124.285C143.155 126.322 143.26 128.387 143.716 130.388C139.465 121.115 137.258 111.037 137.243 100.836C137.243 98.2758 137.385 95.7179 137.669 93.174C137.905 91.0885 138.231 89.0178 138.649 86.962C140.927 75.8074 145.819 65.3524 152.923 56.4555C156.361 54.5795 159.141 51.6947 160.889 48.1899C161.523 46.93 161.97 45.585 162.218 44.1969C161.831 44.2478 160.756 38.341 161.048 37.9786C160.508 37.1584 159.541 36.7507 158.95 35.9503C156.014 31.97 151.97 32.665 149.858 38.074C145.347 40.3506 145.304 44.1262 148.071 47.7575C149.832 50.0677 150.074 53.1937 151.619 55.667C151.46 55.8705 151.295 56.0676 151.136 56.2711C148.23 60.0075 145.698 64.0196 143.575 68.25C144.175 63.5581 143.289 57.9056 141.777 54.2619C140.056 50.1103 136.83 46.6139 133.99 43.0248C130.578 38.7139 123.581 40.5953 122.98 46.0601C122.974 46.113 122.969 46.1659 122.963 46.2188C123.385 46.4568 123.798 46.7094 124.202 46.9767C124.71 47.3159 125.103 47.8005 125.331 48.3671C125.558 48.9336 125.609 49.5557 125.477 50.1517C125.345 50.7478 125.036 51.2901 124.59 51.7075C124.145 52.125 123.584 52.3981 122.98 52.4911L122.919 52.5007C123.069 54.0213 123.334 55.5283 123.713 57.0086C120.069 71.1013 127.937 76.2341 139.17 76.4647C139.418 76.5918 139.66 76.719 139.908 76.8398C137.775 82.8846 136.437 89.1811 135.927 95.571C135.639 99.3408 135.656 103.128 135.978 106.895L135.959 106.761C135.145 102.572 132.911 98.7927 129.633 96.0606C124.764 92.0613 117.886 90.5885 112.634 87.3739C110.105 85.8264 106.866 87.8261 107.307 90.7574C107.314 90.8041 107.321 90.8509 107.328 90.8978C108.111 91.2166 108.874 91.584 109.611 91.9977C110.033 92.2357 110.446 92.4884 110.85 92.7556C111.357 93.0948 111.751 93.5794 111.978 94.1459C112.206 94.7125 112.257 95.3346 112.125 95.9306C111.993 96.5267 111.684 97.069 111.238 97.4865C110.793 97.9039 110.232 98.177 109.628 98.2701L109.566 98.2796C109.522 98.2859 109.484 98.2923 109.439 98.2987C110.777 101.493 112.655 104.433 114.99 106.99C117.268 119.293 127.055 120.46 137.523 116.877H137.53C138.678 121.868 140.342 126.727 142.495 131.374H160.235C160.298 131.177 160.355 130.973 160.413 130.776C158.771 130.879 157.122 130.781 155.504 130.484C156.82 128.869 158.136 127.241 159.453 125.626C159.482 125.596 159.509 125.564 159.535 125.531C160.203 124.704 160.877 123.884 161.544 123.057L161.545 123.056C161.58 120.523 161.29 117.995 160.68 115.536L160.679 115.535Z" fill="#F2F2F2"/>
<path d="M77.9063 26.3236C77.5037 27.2619 65.0895 27.1613 64.521 27.9968C60.1372 34.4469 75.9397 61.8905 71.556 68.3489L70.9453 69.0768C72.3754 68.4177 73.7492 67.6426 75.0529 66.7594C75.17 64.1158 75.2872 61.4638 75.4126 58.8202C76.7256 60.4999 77.7854 62.363 78.5582 64.35C79.5788 63.6306 80.4161 62.2969 84.7908 59.6735C86.5618 57.728 88.6035 56.0473 90.8531 54.6831L77.9063 26.3236Z" fill="#2F2E41"/>
<path d="M86.921 79.1857C85.551 78.2933 83.988 77.7404 82.3616 77.573C80.7353 77.4056 79.0924 77.6285 77.5694 78.2231C76.0464 78.8178 74.6872 79.767 73.6045 80.9922C72.5219 82.2173 71.747 83.683 71.3441 85.2675L52.479 134.422L20.0519 116.013C19.9095 113.897 19.1007 111.88 17.7413 110.252C16.382 108.624 14.542 107.469 12.4853 106.951C10.4285 106.433 8.26071 106.581 6.29274 107.371C4.32477 108.162 2.65776 109.555 1.53077 111.352C0.403792 113.149 -0.125254 115.256 0.0195168 117.372C0.164287 119.488 0.975437 121.504 2.33662 123.13C3.69781 124.756 5.5391 125.91 7.59642 126.425C9.65373 126.94 11.8214 126.791 13.7884 125.998C20.6173 133.286 50.2229 163.169 62.4794 151.493C72.7816 141.679 87.6489 103.643 91.2277 90.509C91.801 88.4087 91.6929 86.1807 90.9189 84.1458C90.145 82.1109 88.7451 80.3741 86.921 79.1857Z" fill="#FFB6B6"/>
<path d="M51.4973 153.553L57.4506 180.461L100.983 184.398L104.984 160.969L51.4973 153.553Z" fill="#FFB6B6"/>
<path d="M117.994 222.555C117.974 222.94 117.95 223.322 117.922 223.708C117.505 229.283 117.027 235.714 116.51 242.76C115.695 253.943 114.784 266.676 113.866 279.998H22.5566L40.2651 226.772C40.2651 226.772 47.4154 222.835 43.7751 216.222C40.1348 209.608 47.2976 214.878 47.3642 205.434C47.4308 195.989 53.8494 185.941 53.8494 185.941L54.9032 171.641L55.5037 171.653L103.021 172.444L103.888 172.46L105.348 184.736C114.209 195.281 118.73 208.801 117.994 222.555Z" fill="#2F2E41"/>
<path d="M78.6674 66.1453L100.335 65.0291L110.4 80.9318C110.4 80.9318 129.336 84.0977 128.023 106.412C126.711 128.725 104.984 148.306 104.984 148.306L105.912 145.122L104.299 149.731L104.506 152.319L106.707 155.06L106.933 157.894L104.984 162.379C105.237 162.785 105.372 163.254 105.372 163.733C105.372 164.212 105.238 164.682 104.985 165.088C104.732 165.495 104.37 165.823 103.941 166.034C103.511 166.246 103.031 166.332 102.554 166.285L71.2452 163.147C70.5324 161.186 69.9605 158.84 67.1032 162.746L64.1539 162.46L51.8935 161.272L51.1718 158.643C50.7618 157.15 50.6979 155.582 50.985 154.06C51.2721 152.538 51.9026 151.101 52.8286 149.859C51.7637 146.525 52.0426 142.906 53.606 139.774L53.6647 139.656L54.9667 138.571C54.9667 138.571 40.7224 117.171 57.0744 101.053L63.6373 89.8961L70.9806 80.9369L78.6674 66.1453Z" fill="#FE5433"/>
<path d="M84.06 56.7579C95.408 56.7579 104.607 47.5586 104.607 36.2106C104.607 24.8626 95.408 15.6632 84.06 15.6632C72.712 15.6632 63.5127 24.8626 63.5127 36.2106C63.5127 47.5586 72.712 56.7579 84.06 56.7579Z" fill="#FFB6B6"/>
<path d="M99.6659 65.8105C97.9927 64.4123 96.8281 62.5007 96.353 60.3727C95.973 62.9565 96.0723 65.5883 96.6459 68.1361C95.5332 68.9727 94.454 69.7675 93.4333 70.4869C92.6606 68.4999 91.6008 66.6368 90.2878 64.9571C90.1623 67.6007 90.0452 70.2527 89.928 72.8963C88.6244 73.7796 87.2506 74.5546 85.8204 75.2137L86.4311 74.4859C90.8148 68.0274 79.4707 56.1395 83.8544 49.6894C85.0842 47.8824 79.5293 33.6019 75.2962 32.9577C71.5315 32.3888 71.6905 33.4764 68.043 34.2712C67.6642 32.6914 67.0761 31.1693 66.2945 29.7452C66.5026 31.3321 66.4546 32.9421 66.1523 34.5138C64.8556 34.5639 63.8354 33.7377 62.4546 33.5266C53.6453 32.1797 54.5405 22.651 56.9917 19.6309C59.4512 16.6192 67.6163 15.7157 71.3809 14.7369C71.7239 14.4023 72.5019 14.6114 72.845 14.2935C80.0597 7.69071 89.7089 6.59724 98.3923 9.52374C107.653 12.6446 113.426 18.6849 116.389 27.9968L117.239 35.4486C118.002 37.8447 117.042 48.9931 116.389 51.4212C113.85 60.8596 108.443 56.1479 99.6659 65.8105Z" fill="#2F2E41"/>
<path d="M129.626 163.158L128.817 100.158C128.775 97.4886 127.685 94.9431 125.782 93.0706C123.88 91.198 121.318 90.1485 118.648 90.1485C117.267 90.1485 115.901 90.4297 114.632 90.9751C113.364 91.5204 112.219 92.3184 111.269 93.3204C110.319 94.3224 109.583 95.5075 109.105 96.8033C108.628 98.0991 108.42 99.4786 108.493 100.858L111.339 166.274L111.393 206.097C109.716 206.808 108.298 208.019 107.332 209.564C106.366 211.11 105.9 212.915 105.996 214.735C106.092 216.555 106.746 218.301 107.869 219.736C108.992 221.171 110.529 222.226 112.273 222.757C114.016 223.288 115.88 223.269 117.613 222.703C119.345 222.138 120.861 221.053 121.955 219.595C123.049 218.138 123.668 216.379 123.728 214.558C123.788 212.737 123.285 210.941 122.289 209.415L129.626 163.158Z" fill="#FFB6B6"/>
<path d="M235.673 244.667C235.673 244.667 234.422 267.168 233.847 280H190.776C189.89 268.322 189.591 259.742 189.591 259.742L187.235 280H143.699L141 242.481L154.043 210.15C154.043 210.15 224.727 205.248 231.284 211.466C237.836 217.681 235.673 244.667 235.673 244.667Z" fill="#2F2E41"/>
<path d="M197.586 55.3878C210.579 55.3878 221.112 44.8546 221.112 31.8614C221.112 18.8681 210.579 8.33496 197.586 8.33496C184.592 8.33496 174.059 18.8681 174.059 31.8614C174.059 44.8546 184.592 55.3878 197.586 55.3878Z" fill="#FFB6B6"/>
<path d="M225.008 24.2167C222.592 25.3186 221.026 33.2989 219.126 31.4436C217.227 29.5884 217.354 27.174 214.793 26.4894C212.725 25.9341 210.5 26.5687 208.614 27.5696C208.277 27.7462 207.951 27.9382 207.632 28.1292C207.422 27.9888 207.213 27.8567 206.989 27.7349C205.302 26.832 203.332 26.6105 201.487 27.116C202.945 27.6045 204.213 28.539 205.111 29.7875C204.48 30.2106 203.841 30.6347 203.187 31.0105C197.723 34.1637 189.947 27.3072 184.196 24.7314C187.799 31.4918 186.025 34.2915 182.897 41.2832L182.789 41.6813C182.966 39.929 177.544 38.6231 177.858 41.0898C178.082 42.8412 179.597 46.734 180.446 48.2803C174.399 41.2884 170.267 32.7322 171.139 23.9057C171.329 22.0516 171.272 20.0952 172.228 18.4859C173.185 16.8849 175.181 15.7614 176.947 16.372C176.797 13.5571 177.413 10.7543 178.729 8.26158C180.046 5.76884 182.012 3.67931 184.421 2.21515C186.83 0.750985 189.59 -0.0330891 192.409 -0.0537203C195.228 -0.0743514 198 0.669237 200.429 2.09799C202.687 3.42287 204.572 5.29667 206.642 6.91298C208.711 8.52928 211.097 9.93815 213.721 10.0716C215.386 10.1519 217.197 9.74545 218.627 10.6076C220.284 11.6081 220.568 13.7027 220.816 15.7182C219.339 15.8639 217.938 16.4468 216.793 17.3925C218.322 17.2366 219.861 17.5667 221.192 18.3359C221.217 18.3474 221.241 18.3611 221.264 18.3769C222.14 21.7079 222.05 22.4463 225.008 24.2167Z" fill="#2F2E41"/>
<path d="M143.803 221.532C163.838 198.081 157.071 168.253 149.119 138.143L150.632 93.6623C150.706 91.4804 151.305 89.3483 152.376 87.4462C153.448 85.5441 154.961 83.9277 156.789 82.7337L177.242 69.3719L185.203 57.8621L207.146 60.0565L219.314 72.925L232.784 83.2076C236.165 85.7894 238.739 89.2843 240.2 93.2803C241.661 97.2763 241.949 101.607 241.031 105.761L228.141 164.052C228.141 164.052 233.532 194.27 230.243 197.608C226.953 200.945 218.477 197.609 225.199 201.356C233.265 205.852 240.6 205.022 236.518 209.104C232.436 213.186 237.602 218.861 237.602 218.861L143.803 221.532Z" fill="#FE5433"/>
<path d="M152.369 255.614L155.709 231.818L142.382 228.014L139.746 253.298C138.643 254.309 137.844 255.608 137.438 257.049C137.033 258.489 137.038 260.014 137.452 261.452C137.866 262.89 138.673 264.184 139.782 265.189C140.891 266.193 142.258 266.868 143.73 267.138C145.202 267.409 146.72 267.263 148.113 266.717C149.507 266.172 150.721 265.249 151.618 264.051C152.516 262.854 153.062 261.43 153.194 259.94C153.327 258.449 153.041 256.951 152.369 255.614Z" fill="#FFB6B6"/>
<path d="M177.742 73.6614C177.742 73.6614 139.807 86.008 138.902 95.0419C137.998 104.076 138.298 109.606 134.294 145.756L134.505 243.133C134.505 243.133 159.938 248.579 157.33 242.757C154.722 236.934 155.632 234.195 155.632 234.195C155.632 234.195 161.085 232.043 159.72 225.208C158.355 218.372 165.2 184.495 165.2 184.495L169.52 123.738L177.742 73.6614Z" fill="#FE5433"/>
<path d="M224.517 254.354L222.74 230.391L236.287 227.465L237.265 252.868C238.299 253.949 239.012 255.297 239.322 256.761C239.632 258.225 239.528 259.746 239.021 261.154C238.513 262.562 237.624 263.801 236.451 264.731C235.279 265.661 233.87 266.245 232.384 266.418C230.898 266.592 229.393 266.347 228.038 265.712C226.683 265.076 225.532 264.076 224.715 262.822C223.897 261.569 223.446 260.112 223.411 258.616C223.376 257.12 223.759 255.644 224.517 254.354Z" fill="#FFB6B6"/>
<path d="M211.092 71.1319C211.092 71.1319 248.139 85.9317 248.451 95.0054C248.763 104.079 248.102 109.578 249.734 145.912L243.159 243.068C243.159 243.068 217.424 246.839 220.407 241.2C223.39 235.561 222.661 232.768 222.661 232.768C222.661 232.768 217.361 230.264 219.17 223.532C220.979 216.8 216.362 182.548 216.362 182.548L216.022 121.639L211.092 71.1319Z" fill="#FE5433"/>
</g>
<defs>
<clipPath id="clip0_40_338">
<rect width="367.772" height="280" fill="white"/>
</clipPath>
</defs>
</svg>
