<svg width="39" height="46" viewBox="0 0 39 46" fill="none" xmlns="http://www.w3.org/2000/svg">
<path d="M36.3636 19.1819C36.3636 32.5455 19.1818 44.0001 19.1818 44.0001C19.1818 44.0001 2 32.5455 2 19.1819C2 14.625 3.81022 10.2547 7.03244 7.0325C10.2547 3.81028 14.6249 2.00006 19.1818 2.00006C23.7387 2.00006 28.109 3.81028 31.3312 7.0325C34.5534 10.2547 36.3636 14.625 36.3636 19.1819Z" stroke="white" stroke-width="4" stroke-linecap="round" stroke-linejoin="round"/>
<path d="M19.2273 24.9091C22.3904 24.9091 24.9545 22.3449 24.9545 19.1818C24.9545 16.0187 22.3904 13.4545 19.2273 13.4545C16.0642 13.4545 13.5 16.0187 13.5 19.1818C13.5 22.3449 16.0642 24.9091 19.2273 24.9091Z" stroke="#FAB49E" stroke-width="4" stroke-linecap="round" stroke-linejoin="round"/>
</svg>
