<svg id="e5dkqXhI3T61" xmlns="http://www.w3.org/2000/svg" xmlns:xlink="http://www.w3.org/1999/xlink" viewBox="0 0 320 500" shape-rendering="geometricPrecision" text-rendering="geometricPrecision" width="320" height="500">
<style><![CDATA[
#e5dkqXhI3T62_to {animation: e5dkqXhI3T62_to__to 5000ms linear infinite normal forwards}@keyframes e5dkqXhI3T62_to__to { 0% {transform: translate(210.957146px,-93.679497px)} 4% {transform: translate(210.957146px,-93.679497px);animation-timing-function: cubic-bezier(0.42,0,0.58,1)} 10% {transform: translate(160.957146px,286.320503px)} 100% {transform: translate(160.957146px,286.320503px)}} #e5dkqXhI3T63_to {animation: e5dkqXhI3T63_to__to 5000ms linear infinite normal forwards}@keyframes e5dkqXhI3T63_to__to { 0% {transform: translate(160.302502px,-174.027817px)} 16% {transform: translate(160.302502px,-174.027817px);animation-timing-function: cubic-bezier(0.42,0,0.58,1)} 22% {transform: translate(160.302502px,205.972183px)} 100% {transform: translate(160.302502px,205.972183px)}} #e5dkqXhI3T66_to {animation: e5dkqXhI3T66_to__to 5000ms linear infinite normal forwards}@keyframes e5dkqXhI3T66_to__to { 0% {transform: translate(342.517498px,-479.140999px)} 22% {transform: translate(342.517498px,-479.140999px);animation-timing-function: cubic-bezier(0.42,0,0.58,1)} 30% {transform: translate(162.517498px,141.859001px)} 100% {transform: translate(162.517498px,141.859001px)}} #e5dkqXhI3T68_to {animation: e5dkqXhI3T68_to__to 5000ms linear infinite normal forwards}@keyframes e5dkqXhI3T68_to__to { 0% {transform: translate(338.726181px,182.674996px)} 8% {transform: translate(338.726181px,182.674996px);animation-timing-function: cubic-bezier(0.42,0,0.58,1)} 14% {transform: translate(158.726181px,312.674996px)} 100% {transform: translate(158.726181px,312.674996px)}} #e5dkqXhI3T611_to {animation: e5dkqXhI3T611_to__to 5000ms linear infinite normal forwards}@keyframes e5dkqXhI3T611_to__to { 0% {transform: translate(-151.712188px,-2.59446px)} 10% {transform: translate(-151.712188px,-2.59446px);animation-timing-function: cubic-bezier(0.42,0,0.58,1)} 16% {transform: translate(128.287812px,267.40554px)} 100% {transform: translate(128.287812px,267.40554px)}}
]]></style>
<defs><linearGradient id="e5dkqXhI3T66-fill" x1="82.6288" y1="148.545" x2="231.06" y2="255.475" spreadMethod="pad" gradientUnits="userSpaceOnUse" gradientTransform="translate(0 0)"><stop id="e5dkqXhI3T66-fill-0" offset="0%" stop-color="#952908"/><stop id="e5dkqXhI3T66-fill-1" offset="47.3958%" stop-color="#d8491d"/><stop id="e5dkqXhI3T66-fill-2" offset="100%" stop-color="#952908"/></linearGradient></defs><g id="e5dkqXhI3T62_to" transform="translate(210.957146,-93.679497)"><path d="M102.818,224.256c67.854,21.544,99.477,43.48,154.04,85.432l-72.907,38.697c-39.025-29.292-65.414-44.507-118.8947-69.916l37.7617-54.213Z" transform="translate(-160.957146,-286.320503)" fill="#952908"/></g><g id="e5dkqXhI3T63_to" transform="translate(160.302502,-174.027817)"><g transform="translate(-160.302501,-155.972183)"><path d="M63.187,193.411v-6.356c8.709-15.407,21.6356-24.005,59.073-40.379c5.397-.969,8.016-.83,12.338,0l116.838,67.672c5.591,5.793,5.608,7.665,5.982,16.077-21.413,19.098-31.768,26.941-61.69,35.519L63.187,193.411Z" transform="translate(0-50)" fill="#d8491d"/><path d="M92.9105,170.417c7.3235-9.219,12.5815-11.951,23.5545-13.46l120.951,69.729c-12.57,2.668-17.384,5.899-23.181,13.834L92.9105,170.417Z" transform="translate(0-50)" fill="#fe5433"/><g id="e5dkqXhI3T66_to" transform="translate(342.517498,-479.140999)"><path d="M100.201,170.043l7.104-6.169l10.282-4.113c10.81-6.219,16.869-9.12,27.667-11.216c32.073,1.813,50.497,15.09,77.58,72.159l-17.385,10.469c-10.963-12.978-18.832-57.132-57.391-68.794-21.498-10.095-39.071,13.459-47.857,7.664Z" transform="translate(-161.517498,-189.859001)" fill="url(#e5dkqXhI3T66-fill)"/></g><path d="M93.0975,160.883l6.356-3.739c5.0605.153,6.8675.537,7.8515,1.87l-7.291,3.925c-1.2532-1.142-2.5643-1.639-6.9165-2.056Z" transform="translate(0-50)" fill="#fff"/></g></g><g id="e5dkqXhI3T68_to" transform="translate(338.726181,182.674996)"><g transform="translate(-318.726181,-202.674995)"><path d="M191.428,263.888c29.97-7.581,43.36-15.144,65.99-33.463v78.889c.292,1.269-14.02,16.825-30.658,25.611-16.638,8.787-28.411,18.402-42.248,13.647s6.916-84.684,6.916-84.684Z" transform="translate(160-110)" fill="#b43717"/><path d="M220.03,234.912l6.73-5.048c3.915,4.465,5.452,7.457,7.291,13.46v83.376c-.783,2.333-1.294,3.602-2.991,5.421-2.284,1.927-3.541,2.808-5.608,2.804.323-1.312.401-2.392.373-4.86v-83.002c-1.436-6.646-2.896-8.866-5.795-12.151Z" transform="translate(157-107)" fill="#fff"/></g></g><g id="e5dkqXhI3T611_to" transform="translate(-151.712188,-2.59446)"><g transform="translate(-128.287811,-217.40554)"><path d="M63.1618,194.024c.0112-5.756,6.2495-9.341,11.229-6.453L188.165,253.553c2.258,1.31,3.67,3.703,3.724,6.313l1.676,80.746c.125,6.003-6.52,9.696-11.558,6.431-36.119-23.407-68.396-43.651-114.9156-67.599-2.5033-1.288-4.0879-3.87-4.0825-6.686l.1529-78.734Z" transform="translate(0-50)" fill="#9d2d15"/><g transform="translate(0-50)"><path d="M120.018,250.651l.389.805.766.46l16.243,9.76.736.442.858-.015l10.781-.184c.065-.001.09.013.102.02.021.012.05.038.075.08.024.042.031.08.032.104c0,.014-.001.043-.034.099l-13.06,21.734-16.782,3.64-14.178-8.518-4.225-16.221l13.221-22.004c.034-.057.059-.07.072-.076.021-.012.058-.023.108-.02.05.002.087.016.107.029.011.007.035.023.064.083l4.725,9.782Z" fill="#fff" stroke="#fff" stroke-width="5"/><path d="M133.243,271.913l-17.476-11.349-3.474,5.35l17.476,11.349l3.474-5.35Z" fill="#d8491d"/><path d="M125.768,258.439l-11.349,17.476l5.35,3.474l11.349-17.475-5.35-3.475Z" fill="#9d2d15"/></g></g></g></svg>
