<svg width="328" height="280" viewBox="0 0 328 280" fill="none" xmlns="http://www.w3.org/2000/svg">
<g clip-path="url(#clip0_40_441)">
<path d="M168.888 139.418C170.06 144.115 168.492 148.522 165.387 149.261C162.281 150.001 158.814 146.793 157.642 142.095C157.147 140.224 157.125 138.263 157.577 136.376L152.872 116.414L162.652 114.419L166.252 134.311C167.543 135.783 168.447 137.534 168.888 139.418Z" fill="#FDADB0"/>
<path d="M127.886 253.566L128.488 266.65L127.885 270.27L129.997 274.494L146.591 276.304L147.496 268.46L138.746 263.934L138.492 256.541L127.886 253.566Z" fill="#FDADB0"/>
<path d="M145.384 273.287L144.479 274.494L127.101 269.486C127.101 269.486 127.885 277.209 127.885 278.718C127.885 280.226 156.547 280.226 160.86 279.623C165.173 279.02 163.788 275.097 163.788 275.097L145.902 266.631L145.384 273.287Z" fill="#2F2E43"/>
<path d="M84.6533 243.935L81.037 256.523L79.3066 259.76L79.9558 264.438L95.0976 271.463L98.4655 264.321L91.6245 257.233L95.9158 246.106L84.6533 243.935Z" fill="#FDADB0"/>
<path d="M94.9197 268.219L93.676 269.072L78.8147 258.767C78.8147 258.767 77.0858 266.335 76.603 267.764C76.1203 269.193 103.275 278.366 107.554 279.174C111.834 279.983 111.777 275.824 111.777 275.824L97.5408 262.078L94.9197 268.219Z" fill="#2F2E43"/>
<path d="M129.056 37.5574L129.689 47.8474L110.475 48.8221L116.425 35.2649L129.056 37.5574Z" fill="#FDADB0"/>
<path d="M130.18 46.3083C125.029 48.6054 116.792 47.9769 107.456 46.3083L105.997 110.984C105.997 110.984 135.2 116.856 145.24 106.023L139.956 53.178L130.18 46.3083Z" fill="#E0E1E2"/>
<path d="M142.069 107.608L100.843 111.683L80.498 249.826H96.0872L122.781 155.168L124.895 262.442H139.163L151.317 131.124L142.069 107.608Z" fill="#2F2E43"/>
<path d="M113.318 42.3449L99.4661 50.5419C94.2187 53.6471 91.7454 59.9155 93.4587 65.7671L104.164 102.331C104.164 102.331 86.7312 132.28 92.3959 134.923C105.125 140.86 124.12 139.414 124.12 139.414L119.875 67.7103L113.318 42.3449Z" fill="#3F3D58"/>
<path d="M129.578 46.0364L145.24 52.1212L148.939 97.3032L159.299 133.702C141.753 140.106 143.391 137.122 143.391 137.122L140.484 74.3158L129.578 46.0364Z" fill="#3F3D58"/>
<path d="M152.458 132.932L152.404 132.685L136.394 58.6358C135.947 56.5668 136.519 54.4929 137.964 52.9455C139.408 51.3979 141.439 50.6852 143.534 50.9898C146.118 51.3655 148.187 53.2478 148.804 55.7853L166.389 128.07L152.458 132.932Z" fill="#3F3D58"/>
<path d="M120.718 40.2911C129.328 40.2911 136.307 33.3117 136.307 24.7022C136.307 16.0927 129.328 9.11334 120.718 9.11334C112.109 9.11334 105.129 16.0927 105.129 24.7022C105.129 33.3117 112.109 40.2911 120.718 40.2911Z" fill="#FDADB0"/>
<path d="M128.135 4.50565C131.569 5.71248 133.533 6.40305 135.333 8.13692C138.373 11.0657 138.875 14.9796 139.341 18.6163C139.706 21.4612 140.177 25.1396 138.511 29.3422C137.943 30.7764 135.185 37.1662 129.906 37.9738C128.87 38.1323 126.436 38.174 127.137 37.6561C133.63 32.8628 136.401 29.969 136.174 22.5818C136.032 17.9916 129.019 13.0358 124.854 12.1449C123.099 11.7696 120.764 12.1124 119.089 13.4874C115.589 16.361 115.738 28.2438 112.047 30.7278C110.529 31.7494 111.54 24.5584 110.471 25.7245C108.361 28.0255 109.714 31.5492 110.093 32.8911C111.892 39.2564 115.284 39.8794 117.041 45.315C118.938 51.1835 116.55 56.7086 115.984 58.0188C114.999 60.298 113.309 64.2095 109.448 66.0861C104.546 68.468 100.683 65.3663 98.404 68.0254C97.1301 69.5119 97.8192 71.0863 95.5185 75.71C94.7674 77.2194 94.3919 77.9741 94.0594 77.9473C92.4862 77.8206 89.9391 65.2275 94.0587 53.4995C95.7876 48.5777 97.4814 43.7556 102.022 39.9849C104.422 37.9914 106.435 37.2741 107.008 34.9461C107.827 31.6202 104.428 30.2007 103.746 24.9531C103.28 21.3642 102.953 16.2314 104.22 12.9416C105.417 9.8348 106.456 7.13792 109.175 4.6927C109.828 4.10538 115.099 0.11318 120.688 0.000566933C123.261 -0.051202 125.152 3.45713 128.135 4.50565Z" fill="#2F2E43"/>
<path d="M161.075 140.682C182.132 140.682 199.203 123.611 199.203 102.554C199.203 81.4962 182.132 64.4257 161.075 64.4257C140.017 64.4257 122.947 81.4962 122.947 102.554C122.947 123.611 140.017 140.682 161.075 140.682Z" fill="#FE5433"/>
<path d="M151.427 127.429C153.742 119.08 156.056 110.731 158.371 102.382C158.864 100.604 159.245 98.6298 160.373 97.1213C161.245 95.9551 162.616 95.1921 164.068 95.6717C167.529 96.8152 167.472 101.809 167.411 104.722C167.318 109.121 166.325 113.509 164.498 117.512C164.247 118.061 164.341 118.716 164.899 119.042C165.38 119.323 166.177 119.193 166.429 118.641C168.259 114.632 169.347 110.341 169.6 105.939C169.818 102.14 169.834 97.1301 166.542 94.541C164.932 93.2756 162.878 92.8997 160.992 93.7743C159.127 94.6387 157.989 96.4283 157.273 98.2812C156.477 100.342 156.002 102.551 155.413 104.677L153.514 111.528C152.099 116.63 150.685 121.732 149.27 126.835C148.885 128.224 151.042 128.816 151.427 127.429Z" fill="white"/>
<path d="M161.344 115.801C162.776 110.425 163.508 104.866 163.514 99.3028C163.515 97.8637 161.279 97.8615 161.277 99.3028C161.271 104.678 160.571 110.013 159.187 115.207C158.816 116.599 160.973 117.193 161.344 115.801Z" fill="white"/>
<path d="M138.352 115.737C139.851 108.51 141.473 101.26 143.554 94.1753C145.24 88.4307 148.149 81.9208 154.288 79.838C157.336 78.8036 160.641 78.9702 163.761 79.5704C166.855 80.1656 169.989 81.0514 172.841 82.4064C175.541 83.6889 178.038 85.4567 179.816 87.892C181.57 90.296 182.662 93.0859 183.251 95.9911C184.618 102.733 183.009 109.621 181.207 116.119C180.967 116.983 180.722 117.847 180.477 118.71C180.082 120.097 182.24 120.689 182.633 119.305C184.625 112.299 186.693 104.98 185.766 97.6276C185.364 94.4478 184.472 91.324 182.883 88.5254C181.254 85.6575 178.904 83.3133 176.086 81.6094C173.245 79.8909 170.046 78.797 166.843 77.976C163.441 77.1039 159.9 76.5671 156.396 77.0545C153.092 77.514 150.115 79.0806 147.775 81.4459C145.378 83.8691 143.757 86.897 142.561 90.0616C141.242 93.5516 140.38 97.2179 139.473 100.831C138.514 104.65 137.619 108.485 136.789 112.334C136.587 113.269 136.39 114.205 136.196 115.142C136.073 115.733 136.368 116.35 136.977 116.518C137.531 116.67 138.229 116.331 138.352 115.737Z" fill="white"/>
<path d="M149.879 92.6181C151.623 87.326 157.239 84.0498 162.676 84.4128C168.703 84.8153 173.927 89.2169 176.043 94.7558C177.3 98.0471 177.67 101.669 177.141 105.152C177.05 105.748 177.291 106.354 177.922 106.528C178.451 106.673 179.206 106.347 179.298 105.747C180.354 98.7858 178.412 91.201 172.934 86.4939C170.366 84.2867 167.219 82.759 163.851 82.3015C160.612 81.8617 157.347 82.4611 154.48 84.0379C151.334 85.7675 148.85 88.6026 147.722 92.0235C147.271 93.3936 149.43 93.9809 149.879 92.6181Z" fill="white"/>
<path d="M145.12 102.875C144.64 108.612 143.194 114.285 140.854 119.546C140.609 120.098 140.694 120.748 141.256 121.076C141.732 121.355 142.539 121.23 142.786 120.675C145.296 115.028 146.841 109.035 147.357 102.875C147.407 102.272 146.806 101.757 146.238 101.757C145.591 101.757 145.171 102.27 145.12 102.875Z" fill="white"/>
<path d="M172.134 109.279C171.654 115.016 170.208 120.689 167.869 125.95C167.623 126.502 167.708 127.152 168.27 127.48C168.746 127.759 169.553 127.634 169.8 127.079C172.311 121.432 173.855 115.439 174.371 109.279C174.421 108.676 173.821 108.161 173.252 108.161C172.606 108.161 172.185 108.674 172.134 109.279Z" fill="white"/>
<path d="M150.747 104.828C152.185 99.1255 154.568 93.7214 157.8 88.8086C158.594 87.6028 156.658 86.4813 155.869 87.6799C152.54 92.74 150.072 98.3601 148.59 104.233C148.238 105.629 150.395 106.225 150.747 104.828Z" fill="white"/>
<path d="M0.366943 279.278C0.366943 279.574 0.604019 279.811 0.899241 279.811H327.101C327.396 279.811 327.633 279.574 327.633 279.278C327.633 278.983 327.396 278.746 327.101 278.746H0.899241C0.604019 278.746 0.366943 278.983 0.366943 279.278Z" fill="#3F3D58"/>
<path d="M128.892 94.7779C133.706 94.2714 137.852 96.4378 138.151 99.6164C138.451 102.795 134.792 105.781 129.976 106.287C128.055 106.517 126.11 106.266 124.305 105.555L103.881 107.434L103.268 97.4718L123.467 96.6772C125.105 95.6041 126.965 94.9529 128.892 94.7779Z" fill="#FDADB0"/>
<path d="M104.009 51.0145C99.0653 50.3182 94.4272 53.5688 93.3996 58.4544C89.8147 75.4994 83.3815 111.807 93.4855 112.414C106.697 113.206 119.379 110.036 119.379 110.036L116.209 91.8042L105.904 90.7473L111.965 62.3955C113.116 57.0121 109.46 51.7823 104.009 51.0145Z" fill="#3F3D58"/>
</g>
<defs>
<clipPath id="clip0_40_441">
<rect width="327.266" height="280" fill="white" transform="translate(0.366943)"/>
</clipPath>
</defs>
</svg>
