<svg width="428" height="155" viewBox="0 0 428 155" fill="none" xmlns="http://www.w3.org/2000/svg">
<path d="M304.357 64.921L302.486 63.6955H300.248H127.752H125.602L123.779 64.8337L8.2648 136.957C8.12784 137.043 8.05603 137.045 8.02032 137.046C7.95972 137.046 7.86404 137.029 7.75751 136.97C7.65097 136.911 7.586 136.839 7.55429 136.787C7.53561 136.757 7.5 136.694 7.5 136.533V-144.101L7.5 -569.081H420.5L420.5 -144.101V140.049C420.5 140.215 420.463 140.277 420.445 140.305C420.414 140.357 420.347 140.429 420.238 140.489C420.128 140.548 420.031 140.563 419.971 140.562C419.937 140.561 419.865 140.558 419.726 140.467L304.357 64.921Z" fill="#9D2D15" stroke="#9D2D15" stroke-width="15"/>
</svg>
