<svg width="428" height="732" viewBox="0 0 428 732" fill="none" xmlns="http://www.w3.org/2000/svg">
<path d="M304.357 641.502L302.486 640.277H300.248H127.752H125.602L123.779 641.415L8.2648 713.538C8.12784 713.624 8.05603 713.627 8.02032 713.627C7.95972 713.627 7.86404 713.61 7.75751 713.551C7.65097 713.492 7.586 713.42 7.55429 713.368C7.53561 713.338 7.5 713.276 7.5 713.114V432.48L7.5 7.5H420.5L420.5 432.48V716.63C420.5 716.796 420.463 716.858 420.445 716.887C420.414 716.938 420.347 717.011 420.238 717.07C420.128 717.129 420.031 717.145 419.971 717.143C419.937 717.142 419.865 717.139 419.726 717.048L304.357 641.502Z" fill="#9D2D15" stroke="#9D2D15" stroke-width="15"/>
</svg>
